<svg id="レイヤー_1" data-name="レイヤー 1" xmlns="http://www.w3.org/2000/svg" viewBox="0 0 1366 768"><defs><style>.cls-1{fill:#040000;}</style></defs><g id="monodukuri"><g id="レイヤー_1-2" data-name="レイヤー 1-2"><path class="cls-1" d="M157.72,374c0-30.46,14.36-47.53,37.78-47.53,15.58,0,26.1,7,32.13,20.42L216,353.27c-3.35-8.66-9.78-14.36-20.42-14.36-14.06,0-22.91,10.66-22.91,28v13.62c0,17.37,8.75,27.41,22.87,27.41,10.88,0,17.81-6.31,21.28-15.35L228,399.33c-6,13.14-17,21.05-32.55,21.05C172.08,420.38,157.72,404.41,157.72,374Z"/><path class="cls-1" d="M239.9,331.48v-2c0-4.22,2.49-7.07,8-7.07s8,2.85,8,7.07v2c0,4-2.47,6.94-8,6.94S239.9,335.63,239.9,331.48Zm1.24,87.29V351.3h13.5v67.47Z"/><path class="cls-1" d="M272.83,418.77V351.3h13.42v11h.48c3-7.31,8.79-12.51,19.08-12.51,13.85,0,22.09,9.4,22.09,26.11v42.85H314.36V377.66c0-10.88-4.34-16.46-13.11-16.46-7.81,0-15,3.83-15,12.05v45.52Z"/><path class="cls-1" d="M341.67,385c0-21.42,11.77-35.16,30.71-35.16,19.56,0,29.84,14.6,29.84,33.56v4.94H355.67v2.37c0,11,6.42,18.55,18.19,18.55a20.07,20.07,0,0,0,18.08-10.52l8,7.69c-4.84,8.42-14.62,14.06-27.25,14.06C353.56,420.38,341.67,406.52,341.67,385Zm14.06-5.58H388v-1.22c0-10.79-6-17.84-15.48-17.84-9.9,0-16.83,7.43-16.83,18.2Z"/><path class="cls-1" d="M416.54,418.77V351.3H430v11h.5c2.85-6.83,8-12.51,18.32-12.51,9,0,16.6,4.22,19.94,13.62h.38c2.47-7.55,9.52-13.62,20.54-13.62,13.62,0,21.31,9.4,21.31,26.11v42.85h-13.5V377.66c0-10.88-4-16.46-12.77-16.46-7.43,0-14.23,3.83-14.23,12.05v45.52H456.94V377.66c0-11-4-16.46-12.75-16.46C437,361.2,430,365,430,373.25v45.52Z"/><path class="cls-1" d="M565.58,380l-.2-5.82c0-8.53-4.58-13.49-14.24-13.49a18.05,18.05,0,0,0-16.34,9.41l-8-7.31c4.48-7.55,12.33-13.11,25.21-13.11,17.33,0,27,8.66,27,23.52v34.54h7.18v11h-7.43a12.51,12.51,0,0,1-13.13-11.26"/><path class="cls-1" d="M693.22,344.73H668.08v74H649.26v-74H624.12V328h69.1Z"/><path class="cls-1" d="M730.41,379.27l-.36-4.58c0-6.93-3.46-11.26-11.75-11.26a16.69,16.69,0,0,0-14.92,8.35l-10.9-9.66c5.32-7.91,13.13-13,27.11-13,18.93,0,28.85,8.91,28.85,24.76v30.64h6.45v14.24H744.73A14.06,14.06,0,0,1,730.43,407v-1.54"/><path class="cls-1" d="M766.54,418.77v-68.1h18.33v11.39h.6c2.61-7.17,8.32-13,19-13,14.06,0,21.53,9.9,21.53,27v42.71H807.64V377.54c0-9-2.85-13.61-10.16-13.61-6.54,0-12.61,3.33-12.61,10.4v44.44Z"/><path class="cls-1" d="M906.77,384.73c0-21.54,11.52-35.66,31.83-35.66,22.09,0,31.32,16.06,31.32,34.66v5.58H925.74v1.23c0,9.41,5.08,15.48,15.49,15.48,8.15,0,12.87-4,17.07-8.68l9.29,11.15c-5.82,7.31-15.84,11.89-28.35,11.89C918.82,420.38,906.77,406.4,906.77,384.73Zm19-6.2H951V377.3c0-8.91-4.22-14.74-12.15-14.74s-13.12,6-13.12,14.86Z"/><path class="cls-1" d="M982.55,418.77v-68.1h18.34v14.48h.62c1.61-7.29,6.93-14.48,17.57-14.48h3.48v17.09h-5c-11.15,0-16.71,2.72-16.71,10.53v40.48Z"/><path class="cls-1" d="M1031.11,333.34v-2.73c0-5.2,3.21-9,10.64-9s10.67,3.83,10.67,9v2.73c0,5.21-3.23,9-10.67,9S1031.11,338.55,1031.11,333.34Zm1.49,85.43v-68.1h18.31v68.1Z"/><path class="cls-1" d="M1067.1,418.77v-68.1h18.39v11.39h.62c2.6-7.17,8.3-13,18.94-13,14.06,0,21.55,9.9,21.55,27v42.71h-18.34V377.54c0-9-2.85-13.61-10.14-13.61-6.56,0-12.63,3.33-12.63,10.4v44.44Z"/><path class="cls-1" d="M1138.61,384.73c0-21.54,11.5-35.66,31.81-35.66,22.09,0,31.32,16.06,31.32,34.66v5.58h-44.17v1.23c0,9.41,5.08,15.48,15.48,15.48,8.17,0,12.87-4,17.09-8.68l9.28,11.15c-5.83,7.31-15.85,11.89-28.36,11.89C1150.5,420.38,1138.61,406.4,1138.61,384.73Zm18.94-6.2h25.26V377.3c0-8.91-4.22-14.74-12-14.74s-13.13,6-13.13,14.86Z"/><path class="cls-1" d="M547.53,379a19.66,19.66,0,1,0,19.66,19.66v0A19.64,19.64,0,0,0,547.55,379Zm-11.19,24.48a4.84,4.84,0,1,1,4.82-4.86v0a4.82,4.82,0,0,1-4.8,4.84Zm11.19,11.18a4.82,4.82,0,1,1,4.84-4.82,4.82,4.82,0,0,1-4.84,4.82Zm-3.32-16.06a3.34,3.34,0,1,1,3.38,3.29h-.06a3.32,3.32,0,0,1-3.32-3.25Zm3.32-6.37a4.84,4.84,0,1,1,4.84-4.84v0a4.82,4.82,0,0,1-4.78,4.86h-.06Zm11.2,11.21a4.84,4.84,0,1,1,4.82-4.86v0a4.81,4.81,0,0,1-4.76,4.88h-.06Z"/><path class="cls-1" d="M712,377.46a20.67,20.67,0,1,0,20.64,20.69v0A20.66,20.66,0,0,0,712,377.46Zm-11.77,25.73a5.08,5.08,0,1,1,5.08-5.08v0a5.07,5.07,0,0,1-5.06,5.06h0ZM712,415a5.09,5.09,0,1,1,5-5.12v.1A5.07,5.07,0,0,1,712,415Zm-3.5-16.83A3.5,3.5,0,1,1,712,401.6h0a3.5,3.5,0,0,1-3.52-3.47h0Zm3.5-6.71a5.08,5.08,0,1,1,5.06-5.1v0A5.07,5.07,0,0,1,712,391.42Zm11.76,11.77a5.08,5.08,0,1,1,5.06-5.1v0a5.06,5.06,0,0,1-5.06,5.06h0Z"/><path class="cls-1" d="M886.69,367.76a48.5,48.5,0,0,1-8-4.82,50.92,50.92,0,0,1-6.93-6.2c-.68-.74-1.34-1.53-2-2.31a27.25,27.25,0,0,0-2.86-.14c-14.23,0-25.76,9.82-25.76,21.95s11.53,21.95,25.76,21.95,25.85-9.76,25.85-21.89a19,19,0,0,0-1.1-6.39l-.53-.2A43.08,43.08,0,0,1,886.69,367.76Z"/><path class="cls-1" d="M895.92,370.05a7.56,7.56,0,0,0-.26-1.42,18.61,18.61,0,0,0-.92-2.63,23.86,23.86,0,0,0-2.63-4.54,34.29,34.29,0,0,0-15.79-11.77,25.29,25.29,0,0,0-5.08-1.24,15.31,15.31,0,0,0-2.79-.14,6.51,6.51,0,0,0-1.46.14,4.56,4.56,0,0,0-.75.18l-.36.16-.16.12-.14.12h.14a.33.33,0,0,1,.14.1l.22.24a4.61,4.61,0,0,1,.4.5c.26.32.51.68.77,1,.48.68,1,1.36,1.46,2l1.09,1.41c10.36,1,18.85,7.17,21.79,15.42l1.82.64,1.21.45c.43.16.86.34,1.28.54A4.42,4.42,0,0,0,895.92,370.05Z"/><path class="cls-1" d="M867.51,345.67v3.56l-.14,1.79a6.13,6.13,0,0,1-.14,1.76v-.28a3.57,3.57,0,0,1-.12,1.49,4.11,4.11,0,0,1-.29.76,3.53,3.53,0,0,1-.52.76H866a5.92,5.92,0,0,1-.82-.68,6.13,6.13,0,0,1-.63-.72,5.23,5.23,0,0,1-.74-1.45v-.18a7,7,0,0,1,.81-1.73l.8-1.74c.58-1.15,1.16-2.31,1.85-3.46Z"/><path class="cls-1" d="M880.66,404.29h-19.2c-5.82,0-8.41-1.87-8.41-5.2a6.28,6.28,0,0,1,2.39-4.82l-5.73-1.5c-5.64,1.62-10.78,5.16-10.78,11.52a11.23,11.23,0,0,0,9.6,11.67v1.37C840.72,418.57,836,423,836,430.46c0,9.9,8.53,16,32.13,16,27,0,36.39-8,36.39-22.41C904.42,411.6,897.25,404.29,880.66,404.29Zm-8.17,30h-8c-10.52,0-14.35-2.61-14.35-7.81a8.14,8.14,0,0,1,2.95-6.46h23.27c7.92,0,10.89,2.21,10.89,6.54C887.21,431.78,882.89,434.25,872.49,434.25Z"/></g></g></svg>