<svg width="22" height="22" viewBox="0 0 22 22" fill="none" xmlns="http://www.w3.org/2000/svg">
<g clip-path="url(#clip0)">
<path d="M7.16979 17.0758C7.16979 17.1617 7.07039 17.2305 6.94506 17.2305C6.80244 17.2434 6.70304 17.1746 6.70304 17.0758C6.70304 16.9898 6.80244 16.9211 6.92777 16.9211C7.05742 16.9082 7.16979 16.977 7.16979 17.0758ZM5.82572 16.8824C5.79547 16.9684 5.88191 17.0672 6.01156 17.093C6.12393 17.1359 6.25358 17.093 6.27951 17.007C6.30544 16.9211 6.22333 16.8223 6.09367 16.7836C5.98131 16.7535 5.85598 16.7965 5.82572 16.8824ZM7.73594 16.8094C7.61061 16.8395 7.52417 16.9211 7.53714 17.0199C7.5501 17.1059 7.66247 17.1617 7.79212 17.1316C7.91745 17.1016 8.00389 17.0199 7.99092 16.934C7.97796 16.8523 7.86127 16.7965 7.73594 16.8094ZM10.5797 0.34375C4.58538 0.34375 0 4.86836 0 10.8281C0 15.5934 3.01658 19.6711 7.32537 21.1063C7.87856 21.2051 8.07304 20.8656 8.07304 20.5863C8.07304 20.3199 8.06007 18.8504 8.06007 17.948C8.06007 17.948 5.03484 18.5926 4.39955 16.6676C4.39955 16.6676 3.90687 15.4172 3.1981 15.0949C3.1981 15.0949 2.20842 14.4203 3.26725 14.4332C3.26725 14.4332 4.34336 14.5191 4.93544 15.5418C5.88191 17.2004 7.46799 16.7234 8.086 16.4398C8.1854 15.7523 8.46632 15.2754 8.77748 14.9918C6.36162 14.7254 3.92415 14.3773 3.92415 10.2438C3.92415 9.06211 4.25261 8.46914 4.94409 7.71289C4.83172 7.43359 4.46437 6.28203 5.05645 4.79531C5.9597 4.51602 8.03846 5.95547 8.03846 5.95547C8.90281 5.71484 9.83199 5.59024 10.7525 5.59024C11.6731 5.59024 12.6022 5.71484 13.4666 5.95547C13.4666 5.95547 15.5453 4.51172 16.4486 4.79531C17.0407 6.28633 16.6733 7.43359 16.561 7.71289C17.2524 8.47344 17.676 9.06641 17.676 10.2438C17.676 14.3902 15.1305 14.7211 12.7146 14.9918C13.1122 15.3313 13.4493 15.9758 13.4493 16.9855C13.4493 18.4336 13.4363 20.2254 13.4363 20.5777C13.4363 20.857 13.6351 21.1965 14.184 21.0977C18.5057 19.6711 21.4359 15.5934 21.4359 10.8281C21.4359 4.86836 16.5739 0.34375 10.5797 0.34375ZM4.20074 15.1637C4.14456 15.2066 4.15753 15.3055 4.231 15.3871C4.30014 15.4559 4.39955 15.4859 4.45573 15.4301C4.51191 15.3871 4.49895 15.2883 4.42548 15.2066C4.35633 15.1379 4.25693 15.1078 4.20074 15.1637ZM3.734 14.8156C3.70374 14.8715 3.74696 14.9402 3.8334 14.9832C3.90254 15.0262 3.98898 15.0133 4.01923 14.9531C4.04948 14.8973 4.00627 14.8285 3.91983 14.7855C3.8334 14.7598 3.76425 14.7727 3.734 14.8156ZM5.13424 16.3453C5.0651 16.4012 5.09103 16.5301 5.19043 16.6117C5.28983 16.7105 5.41516 16.7234 5.47134 16.6547C5.52752 16.5988 5.50159 16.4699 5.41516 16.3883C5.32008 16.2895 5.19043 16.2766 5.13424 16.3453ZM4.64156 15.7137C4.57242 15.7566 4.57242 15.8684 4.64156 15.9672C4.71071 16.066 4.8274 16.109 4.88358 16.066C4.95273 16.0102 4.95273 15.8984 4.88358 15.7996C4.82308 15.7008 4.71071 15.6578 4.64156 15.7137Z" fill="#f858f1"/>
</g>
<defs>
<clipPath id="clip0">
<rect width="21.4359" height="22" fill="white"/>
</clipPath>
</defs>
</svg>
