<svg width="20" height="22" viewBox="0 0 20 22" fill="none" xmlns="http://www.w3.org/2000/svg">
<g clip-path="url(#clip0)">
<path d="M9.62959 6.06025C6.89678 6.06025 4.69248 8.26455 4.69248 10.9974C4.69248 13.7302 6.89678 15.9345 9.62959 15.9345C12.3624 15.9345 14.5667 13.7302 14.5667 10.9974C14.5667 8.26455 12.3624 6.06025 9.62959 6.06025ZM9.62959 14.2071C7.86357 14.2071 6.41982 12.7677 6.41982 10.9974C6.41982 9.22705 7.85928 7.7876 9.62959 7.7876C11.3999 7.7876 12.8394 9.22705 12.8394 10.9974C12.8394 12.7677 11.3956 14.2071 9.62959 14.2071ZM15.9202 5.8583C15.9202 6.49854 15.4046 7.00986 14.7687 7.00986C14.1284 7.00986 13.6171 6.49424 13.6171 5.8583C13.6171 5.22236 14.1327 4.70674 14.7687 4.70674C15.4046 4.70674 15.9202 5.22236 15.9202 5.8583ZM19.1901 7.02705C19.1171 5.48447 18.7647 4.11807 17.6347 2.99229C16.5089 1.8665 15.1425 1.51416 13.5999 1.43682C12.0101 1.34658 7.24482 1.34658 5.65498 1.43682C4.1167 1.50986 2.75029 1.86221 1.62021 2.98799C0.490137 4.11377 0.14209 5.48018 0.0647461 7.02275C-0.0254883 8.6126 -0.0254883 13.3778 0.0647461 14.9677C0.137793 16.5103 0.490137 17.8767 1.62021 19.0024C2.75029 20.1282 4.1124 20.4806 5.65498 20.5579C7.24482 20.6481 12.0101 20.6481 13.5999 20.5579C15.1425 20.4849 16.5089 20.1325 17.6347 19.0024C18.7605 17.8767 19.1128 16.5103 19.1901 14.9677C19.2804 13.3778 19.2804 8.61689 19.1901 7.02705ZM17.1362 16.6735C16.8011 17.5157 16.1522 18.1646 15.3058 18.504C14.0382 19.0067 11.0304 18.8907 9.62959 18.8907C8.22881 18.8907 5.2167 19.0024 3.95342 18.504C3.11123 18.1688 2.4624 17.52 2.12295 16.6735C1.62021 15.406 1.73623 12.3981 1.73623 10.9974C1.73623 9.59658 1.62451 6.58447 2.12295 5.32119C2.45811 4.479 3.10693 3.83018 3.95342 3.49072C5.221 2.98799 8.22881 3.104 9.62959 3.104C11.0304 3.104 14.0425 2.99229 15.3058 3.49072C16.148 3.82588 16.7968 4.47471 17.1362 5.32119C17.639 6.58877 17.5229 9.59658 17.5229 10.9974C17.5229 12.3981 17.639 15.4103 17.1362 16.6735Z" fill="#f858f1"/>
</g>
<defs>
<clipPath id="clip0">
<rect width="19.25" height="22" fill="white"/>
</clipPath>
</defs>
</svg>
