<svg id="レイヤー_1" data-name="レイヤー 1" xmlns="http://www.w3.org/2000/svg" viewBox="0 0 1366 768"><defs><style>.cls-1{fill:#ff9c4a;}.cls-2{fill:#fff;}.cls-3{fill:#5699e6;}.cls-4{fill:#cee1f4;}.cls-5{fill:#e65656;}</style></defs><g id="たっぴねす"><path id="パス_86" data-name="パス 86" class="cls-1" d="M379.21,250.59c-.88,3.95-2.2,6.37-4.83,7.48a105.8,105.8,0,0,1-17.58,1.75c-6.15.22-12.07.44-16.68.66-4.63,20.87-9.22,38.87-14.06,56.66-2,7.68-4.38,15.81-7.48,25A98.87,98.87,0,0,1,314,355.34a6.51,6.51,0,0,1-6.35,4.18,28.22,28.22,0,0,1-5.93-.88c-5.28-.88-7.26-2.85-7.7-5.27v-1.1c0-2.2,2.21-4.63,3.95-7.48,2-3.51,4.63-9.88,7-15.37a223.3,223.3,0,0,0,8.12-23.5,219.61,219.61,0,0,0,6.59-22.18c1.75-7.48,3.07-14.71,5.05-22.62-6.15.44-13.4,1.1-19.1,1.32a66.68,66.68,0,0,0-7,.88c-.66,0-2,.22-2.85.22a5.76,5.76,0,0,1-2.63-.66,4.59,4.59,0,0,1-2.16-4.6,11.46,11.46,0,0,1,.44-3.73c.88-4,2.84-8.13,6.36-8.79a10.19,10.19,0,0,1,1.1-.22c2.2,0,5.05,1.32,7.48,1.32a61.77,61.77,0,0,0,9.22.44c3.52,0,7.48-.22,11.63-.44.45-3.07,1.11-6.15,2-10.54.21-1.76.86-6.15,1.09-8.56a6,6,0,0,0,.22-2c0-1.32-.22-2.63-.22-3.07a40.78,40.78,0,0,1-.66-4.39,3.16,3.16,0,0,1,.66-2.2c1.32-2.2,5.49-2.63,9-2.63h.66c3.95,0,7,.43,8.57,2.63a6.11,6.11,0,0,1,.65,2.85,47.82,47.82,0,0,1-2.19,9.88c-1.55,6.37-2.21,11.2-3.73,17.13a127,127,0,0,0,14.92-1.76,114.45,114.45,0,0,0,11.42-2.63,23.6,23.6,0,0,0,4.18-1.32,16.11,16.11,0,0,1,3.51-.66,2,2,0,0,1,1.09.22c1.32.66,1.76,2.2,1.76,4.39a30.43,30.43,0,0,1-.87,6.37m62.14,87.84a60,60,0,0,1-1.1,5.93c-.67,3.73-1.78,6.14-4.17,7-5.72,2.64-21.75,4.17-32.95,4.17h-2.2a128.19,128.19,0,0,1-37.1-4.82,24.36,24.36,0,0,1-13.17-11.2,15.76,15.76,0,0,1-1.76-7.68,33.81,33.81,0,0,1,4.18-15.37,10.82,10.82,0,0,1,8.78-5.93,2.33,2.33,0,0,1,1.75.44A3.47,3.47,0,0,1,366,314.5a14.52,14.52,0,0,1-1.32,5.05,19.82,19.82,0,0,0-1.76,7.91c0,.88.23,1.75.23,2.63,1.09,4.83,7.25,6.81,11.63,7.91a94.53,94.53,0,0,0,18.45,2c3.07,0,6.15-.22,9.45-.44a150.43,150.43,0,0,0,20-2.42,66.85,66.85,0,0,0,9.88-3.07,21,21,0,0,1,6.81-1.54,1.31,1.31,0,0,1,.88.22c1.1.44,1.32,1.32,1.32,2.85,0,.88-.22,2-.22,2.85M437,284.86c-.87,2.63-3.08,5.93-5.27,6.37H431c-2.64,0-7.25-1.32-11.63-1.76a166,166,0,0,0-20.43-1.1,145.25,145.25,0,0,0-19.1,1.32,113.48,113.48,0,0,1-13,2.2,3.38,3.38,0,0,1-1.54-.22,4.31,4.31,0,0,1-2.63-4.63v-2.42c.45-5.49,2.63-9.88,5.71-10.1h.21c1.79,0,3.75.88,5.94.88h.21c3.52,0,7-.66,11.42-.88s12.08-.88,18-.88h.88c5.69,0,9.22.44,15.15.44,3.51,0,5.72-.44,9-.66,2.2,0,4.6-.66,6.58-.66a4.5,4.5,0,0,1,2.2.44c.87.44,1.09,1.76,1.09,3.3a23.27,23.27,0,0,1-2.19,8.34"/><path id="パス_87" data-name="パス 87" class="cls-1" d="M585.84,309.44a35.34,35.34,0,0,1-18,29c-10.55,6.37-24.16,9.45-36.68,11.42a72,72,0,0,1-10.76,1.32,14.29,14.29,0,0,1-5.49-.88,12.94,12.94,0,0,1-5.69-4.84,15.76,15.76,0,0,1-3.51-7.9,3.08,3.08,0,0,1,.65-2,4.82,4.82,0,0,1,3.74-1.31H511a23,23,0,0,0,4.39.43H516A145.14,145.14,0,0,0,545.67,331a53.51,53.51,0,0,0,19.76-9.44,24.49,24.49,0,0,0,5.92-17.13c0-.66-.21-1.31-.21-2a21,21,0,0,0-9.44-17.35A26.61,26.61,0,0,0,545,280a103.25,103.25,0,0,0-13.83,1.32c-3.31.66-10.77,3.07-15.81,4.63-4.84,1.53-9.45,3.07-15,5.05-5.7,2-10.53,3.73-16.69,6.36a26.93,26.93,0,0,1-9,2.64h-1.32a8.84,8.84,0,0,1-6.15-8.35c0-1.09-.22-1.75-.22-2.63a10.58,10.58,0,0,1,2.63-7.48,6.39,6.39,0,0,1,3.52-.66c1.32,0,2.41.22,3.73.22h1.32c6.36-1.31,11.63-2.85,17.57-4.63,4.83-1.31,8.78-2.84,14.05-4.17A161.37,161.37,0,0,1,544.11,267c2.2,0,4.4.22,6.59.44,16,1.54,28.33,9.44,33.6,25.25a45.3,45.3,0,0,1,1.75,12.3,34,34,0,0,1-.22,4.39"/><path id="パス_88" data-name="パス 88" class="cls-1" d="M759.09,305.5a6.75,6.75,0,0,1-2.21,3.51,25.56,25.56,0,0,1-3.94,2.64,24.78,24.78,0,0,1-8.79,3.07h-.66c-3.07-.44-6.15-5.7-10.1-11.65A74.31,74.31,0,0,1,727,290.56a270.51,270.51,0,0,1-10.54-28.1c.44,6.36.66,13.39.66,19.54,0,3.29,0,6.37-.22,8.78-.23,3.3-.44,6.37-.66,9a77.47,77.47,0,0,1-1.55,8.12,55.72,55.72,0,0,1-54.44,40.63c-20.21,0-39.52-10.11-45-27a61,61,0,0,1-2.41-18,67.33,67.33,0,0,1,1.53-15.37A108.94,108.94,0,0,1,630,255c3.29-5.27,8.56-11.42,12.52-16.91-4.39.88-8.57,1.1-13,2a101.17,101.17,0,0,0-13.62,3.29,7.61,7.61,0,0,1-2.85.66,4.79,4.79,0,0,1-2.64-.66,7.94,7.94,0,0,1-3.51-6.15v-1.54c0-3.29.66-8.34,4-9.22.22-.22.88-.22,1.33-.22a14.39,14.39,0,0,1,3.06.44,8.6,8.6,0,0,0,2.21.22,29,29,0,0,0,3.95-.22c5.26-.44,9.44-.66,14.92-1.32a113.66,113.66,0,0,0,15.81-2c3.73-.44,7.48-4,11-4h.22c2.63,0,5.06,2.64,7.69,5.49a13.13,13.13,0,0,1,3.3,7v.65c-.45,1.54-2,3.08-5.5,4.18A42.29,42.29,0,0,0,656.76,244c-10.32,10.54-22.84,27.23-26.79,41.29a76,76,0,0,0-2.41,18,29.23,29.23,0,0,0,7,20.66,36.59,36.59,0,0,0,18.87,8.34,42,42,0,0,0,7.25.66,37.72,37.72,0,0,0,17.57-3.73c15.59-6.59,22.18-20.43,24.59-38.21a253.57,253.57,0,0,0,2.2-35.79c0-5.27-.22-10.11-.22-14.06,0-2-.89-5.69-.89-8.78a5.18,5.18,0,0,1,.89-3.52,12.32,12.32,0,0,1,6.81-3.73c1.09,0,2.19-.22,3.29-.22a8,8,0,0,1,6.15,2.2c.87.66,1.1,2.41,1.1,4.17,0,1.32-.23,2.64-.23,3.95v.22a33,33,0,0,0,1.54,8.35,129.5,129.5,0,0,0,25.25,50.28,89.11,89.11,0,0,0,6.15,6.59c1.32,1.1,4.18,2.41,4.18,4.63Zm-11.42-68.08h-1.1A20.9,20.9,0,0,1,727,216.56a18.51,18.51,0,0,1,18.36-18.66h1.39a21.06,21.06,0,0,1,19.55,20.86,18.64,18.64,0,0,1-18.62,18.66h0m-1.1-31.4h-.45a10.68,10.68,0,0,0-10.76,10.6V217a12.1,12.1,0,0,0,11.42,12.29h.66A10.5,10.5,0,0,0,758,218.83c0-.17,0-.35,0-.52A12.24,12.24,0,0,0,746.57,206"/><path id="パス_89" data-name="パス 89" class="cls-1" d="M498.66,533.23a15.6,15.6,0,0,1-8.12,3.95h-.22c-3.08-.22-6.16-3.51-8.79-5.27-3.07-2-5.92-3.29-9.66-5.93-4.17,6.81-7.25,11.2-14.71,13.84a50.91,50.91,0,0,1-19.54,3.73c-2.35,0-4.7-.17-7-.43-9.22-1.32-15.81-4-20.42-10.55a18.38,18.38,0,0,1-3.74-11,13.09,13.09,0,0,1,.89-4.83,19.09,19.09,0,0,1,11-13.17A49.15,49.15,0,0,1,435.42,501h3.29a110,110,0,0,1,22.62,3.95,133.88,133.88,0,0,0,1.31-18.45q0-6.92-.66-14.49c-.43-6.81-2.84-16.47-7.9-20.86a25.2,25.2,0,0,0-14.71-4.39,48,48,0,0,0-19.76,5.05,195.76,195.76,0,0,0-32.93,20.86c-2.43,2-8.36,6.81-10.54,9,0,2.85.21,5.49.21,8.78,0,3.52-.21,7.25-.21,11,0,2.64,0,5.7.21,8.57.22,10.76.88,14.93,1.54,25.47a53.4,53.4,0,0,1,.88,7.24,2.69,2.69,0,0,1-.22,1.32,8.38,8.38,0,0,1-8.56,5.49h-.23a7.38,7.38,0,0,1-7.9-5.48,9.09,9.09,0,0,1-.45-3.73c0-3.08.45-7,.45-9.66.22-3.3,1.32-27.66,1.75-40.19a77.57,77.57,0,0,0-7.48,7.69,76.26,76.26,0,0,0-7.9,9.22c-2.2,3.73-5.27,7-8.13,11-1.53,2-4.38,5.48-5.48,5.69a5.37,5.37,0,0,1-1.78.22c-1.75,0-2.85-1.31-4.63-3.73a17.49,17.49,0,0,1-3.89-9.44V510c.66-2.2,5.26-4.63,7-6.36A170,170,0,0,0,349.14,484c5.92-7.24,9.21-12.3,15.37-20.21,0-5.49,0-12.07.22-16.25a123,123,0,0,0-18,4.84A96.53,96.53,0,0,1,336,455.93a9.83,9.83,0,0,1-2.42.22c-3.73,0-5.49-2-5.49-6.8,0-3.29,1.32-10.11,5.06-10.55a2.39,2.39,0,0,1,1.09-.22c1.31,0,2.63.22,3.74.22.21.22.87.22,1.32.22a39,39,0,0,0,4.82-.43c7.7-1.1,14.94-3.29,21.75-4.39,0-4.83,0-8.35.22-17.81v-.66a18.22,18.22,0,0,0-.66-5.69,7.55,7.55,0,0,1-.66-2.64,8.63,8.63,0,0,1,.66-3.29c.44-2.42,4.82-4.39,9.44-5.05a13.49,13.49,0,0,1,2.84-.21,5.93,5.93,0,0,1,6.59,4.39c.22.21.22.66.22,1.09a21.33,21.33,0,0,1-1.75,6.36,26.15,26.15,0,0,0-1.31,6.37,86.81,86.81,0,0,0-1.32,13.83c4.38,2,10.1,4.63,10.1,8.57a4.71,4.71,0,0,1-.22,1.75,56.12,56.12,0,0,1-5.93,6.59c-1.54,1.76-2.42,2.85-4.83,5.93l-.44,8.78c14.49-11.19,32.72-23.71,49.85-27.88a53.45,53.45,0,0,1,12.08-1.54,37.49,37.49,0,0,1,25.47,8.78c7.91,7.25,10.54,22,11.65,33.38a101,101,0,0,1,.66,11c0,2-.23,4.38-.23,6.8a143.79,143.79,0,0,1-1.75,19.1c4.83,2,8.56,4,13.18,5.93a71,71,0,0,0,8.33,3.29c2.43.66,5.28,1.32,6.15,2.85a4,4,0,0,1,.45,1.54c0,2.64-3.3,5.28-5.94,7.48m-54.26-19.34a72.75,72.75,0,0,0-9.22-.65,40.27,40.27,0,0,0-5.49.22,15.63,15.63,0,0,0-9,4.18,5.55,5.55,0,0,0-.89,3.06,6.87,6.87,0,0,0,1.78,4.18,23.06,23.06,0,0,0,10.09,3.73c2.43.22,4.63.45,6.81.45a28,28,0,0,0,5.93-.45,22.34,22.34,0,0,0,10.08-4.39,20.8,20.8,0,0,0,4.19-5.7,43.34,43.34,0,0,0-14.29-4.63"/><path id="パス_90" data-name="パス 90" class="cls-1" d="M689.49,438.81c-1.53,3.29-5.06,8.34-8.12,9.22-.89,0-1.78.22-2.64.22a67.43,67.43,0,0,1-10.1-1.31c-6.81-1.1-9.88-1.32-18.67-2.19a234.25,234.25,0,0,0-25.68-1.11,35.82,35.82,0,0,0-.24,4.63c0,2.85.24,5.7.24,8.78,0,6.59.42,13.4.66,20a55.78,55.78,0,0,1,2.62,17.35,46.55,46.55,0,0,1-1.09,11.41,62.61,62.61,0,0,1-17.14,30.09,118.5,118.5,0,0,1-12.28,10.54,26.63,26.63,0,0,1-13.4,5.7,12.43,12.43,0,0,1-7.7-2.64,25.94,25.94,0,0,1-4.6-2.85c-1.31-.88-4-2.41-4-4.39v-.43c.44-1.54,2.41-1.78,4.19-2.2,2-.66,3.5-1.1,4.6-1.54a89.91,89.91,0,0,0,20.41-10.76,48.45,48.45,0,0,0,15.17-21.52,23.93,23.93,0,0,1-6.38,3.07,33,33,0,0,1-7.67.88,23.82,23.82,0,0,1-19.33-9.22,24.82,24.82,0,0,1-5.49-16v-2c.87-12.74,10.1-25,24.6-25.25h.42A27.08,27.08,0,0,1,610,460.12V443.43h-.43c-4.84,0-13.63.43-21.3.43-6.59.23-12.74.89-20,1.32a159.44,159.44,0,0,0-17.8,2.63c-4.83.66-9.66,3.07-13.6,3.52a7,7,0,0,1-2,.22,7.39,7.39,0,0,1-5.94-2.42,7.58,7.58,0,0,1-1.31-5.27,21.63,21.63,0,0,1,.44-4.17c.44-3.07,3.52-10.76,7.25-11.86H536a10,10,0,0,1,4.17,1.76,17.92,17.92,0,0,0,9,1.54h.23c9.44,0,17.56-.43,26.78-.43h.69c10.75,0,20.86-.89,32.48-.89h.89v-5.5c0-3.95-.23-8.56-.44-11.41a56.64,56.64,0,0,1-1.11-8.79v-.21c0-2.85,4-4.84,8.79-5h1.32a8.43,8.43,0,0,1,7.48,2.63,4.53,4.53,0,0,1,1.32,3.74c0,.66-.22,1.32-.22,2a50.91,50.91,0,0,0-1.1,7.48c-.22,5.48-1.55,11-1.75,15.14H628c7,0,14,.23,20.86.23h4.18a236,236,0,0,0,27.88-1.55c1.32-.22,3.29-.87,5.06-1.31a9.55,9.55,0,0,1,3.29-.66,3.25,3.25,0,0,1,1.54.22,3.6,3.6,0,0,1,1.1,3.07,24.73,24.73,0,0,1-2.42,9m-85.63,30.3a10.74,10.74,0,0,0-5.49-1.31,12,12,0,0,0-5.5,1.31,14.77,14.77,0,0,0-6.59,12.52c0,4.83,1.54,10.33,4.84,12.3a17.39,17.39,0,0,0,8.34,2.19,9.48,9.48,0,0,0,3.51-.44c4.84-1.75,6.15-4.39,6.59-10.75v-2.2c0-5.93-1.32-10.76-5.7-13.62"/><path id="パス_91" data-name="パス 91" class="cls-1" d="M705.25,578.47l-14.89-7.41L800.08,189.53,849,206.62Z"/><path id="パス_92" data-name="パス 92" class="cls-2" d="M825.09,215.93l-1.91,5.91-4.55-1.48L811,243.94l-7.65-2.49L811,217.87l-4.53-1.47,1.91-5.9Z"/><path id="パス_93" data-name="パス 93" class="cls-2" d="M809.92,252.24l-5.21,30.91-7.83-2.55,1.31-5.43-2.75-.89-2.17,5.15-7.95-2.58,13.5-28.21Zm-10.24,17.63q1.08-5.19,2.85-12.77c-2.6,5.4-4.44,9.36-5.48,11.92Z"/><path id="パス_94" data-name="パス 94" class="cls-2" d="M784.64,285.26l7.72,2.49a19.44,19.44,0,0,1,4.66,2.07,5.63,5.63,0,0,1,2.06,2.24,5,5,0,0,1,.42,2.62,21.56,21.56,0,0,1-1,4.19l-.83,2.57a11.18,11.18,0,0,1-1.93,3.91,4.2,4.2,0,0,1-2.77,1.3,10.89,10.89,0,0,1-4.31-.64l-2-.66-3.86,11.86-7.67-2.49Zm6,7.54-2.44,7.5c.22.08.41.16.57.2a1.83,1.83,0,0,0,1.63,0,4,4,0,0,0,1.11-2l.79-2.42a2.94,2.94,0,0,0,.16-2.14,3.11,3.11,0,0,0-1.82-1.09"/><path id="パス_95" data-name="パス 95" class="cls-2" d="M772.51,322.55l7.74,2.49a19.34,19.34,0,0,1,4.65,2.06,5.87,5.87,0,0,1,2.07,2.24,5.25,5.25,0,0,1,.41,2.62,20.6,20.6,0,0,1-1,4.18l-.84,2.59a11.49,11.49,0,0,1-1.91,3.91,4.28,4.28,0,0,1-2.79,1.29,10.52,10.52,0,0,1-4.27-.64l-2.07-.65-3.87,11.89L762.94,352Zm6,7.54-2.43,7.5a5.14,5.14,0,0,0,.55.2,1.85,1.85,0,0,0,1.64,0,4,4,0,0,0,1.11-2l.79-2.42a3,3,0,0,0,.16-2.11,3.2,3.2,0,0,0-1.82-1.1"/><rect id="長方形_44" data-name="長方形 44" class="cls-2" x="747.93" y="373.1" width="31" height="8.06" transform="translate(168.61 986.42) rotate(-71.98)"/><path id="パス_96" data-name="パス 96" class="cls-2" d="M764.65,402.44l-9.58,29.47-6.71-2.17.36-14.7-4.37,13.4-6.4-2.09,9.58-29.48,6.41,2.1v14.65l4.32-13.27Z"/><path id="パス_97" data-name="パス 97" class="cls-2" d="M737.76,435l12.79,4.16-1.92,5.9-5.12-1.67-1.82,5.59,4.8,1.56-1.82,5.61-4.79-1.54-2.11,6.49,5.63,1.83-1.92,5.89-13.29-4.32Z"/><path id="パス_98" data-name="パス 98" class="cls-2" d="M737.09,485.83,730,483.52l.71-2.19a4.45,4.45,0,0,0,.36-2,1,1,0,0,0-.78-.71,1.2,1.2,0,0,0-1.22.22,3.48,3.48,0,0,0-.93,1.59,5.13,5.13,0,0,0-.32,2.36,6.13,6.13,0,0,0,1.58,2.51,23,23,0,0,1,4.83,7.08,12.16,12.16,0,0,1-.71,6.72,11.8,11.8,0,0,1-2.25,4.4,6.05,6.05,0,0,1-3.67,1.58,12,12,0,0,1-5.24-.58,11.82,11.82,0,0,1-4.88-2.88,6,6,0,0,1-1.88-3.89,16,16,0,0,1,1-5.34l.63-1.93,7.12,2.32-1.17,3.6a4.94,4.94,0,0,0-.38,2.21,1.2,1.2,0,0,0,.9.83,1.29,1.29,0,0,0,1.33-.23,3.57,3.57,0,0,0,1-1.67,6,6,0,0,0,.4-3.63,23.58,23.58,0,0,0-2.72-3.84,42.3,42.3,0,0,1-2.9-4,6.88,6.88,0,0,1-.77-2.85,14.34,14.34,0,0,1,3.13-8.72,6.06,6.06,0,0,1,3.59-1.55,11.91,11.91,0,0,1,5,.63,12.7,12.7,0,0,1,4.77,2.63,5.58,5.58,0,0,1,2,3.33,13.2,13.2,0,0,1-.93,5.2Z"/><path id="パス_99" data-name="パス 99" class="cls-2" d="M725,523.13l-7.12-2.33.71-2.17a4.76,4.76,0,0,0,.36-2,1.08,1.08,0,0,0-.78-.71,1.2,1.2,0,0,0-1.23.23,3.53,3.53,0,0,0-.91,1.59,5.13,5.13,0,0,0-.32,2.36,6.08,6.08,0,0,0,1.59,2.52,23,23,0,0,1,4.85,7.06,12,12,0,0,1-.71,6.71,11.13,11.13,0,0,1-2.25,4.39,5.83,5.83,0,0,1-3.66,1.58,13.09,13.09,0,0,1-10.11-3.44,6,6,0,0,1-1.89-3.92,16,16,0,0,1,1-5.34l.63-1.93,7.12,2.31-1.16,3.59a4.88,4.88,0,0,0-.39,2.23,1.21,1.21,0,0,0,.91.82,1.34,1.34,0,0,0,1.33-.23,3.6,3.6,0,0,0,1-1.66,5.85,5.85,0,0,0,.4-3.64,24.1,24.1,0,0,0-2.72-3.85,36.36,36.36,0,0,1-2.89-4,6.64,6.64,0,0,1-.78-2.85,11,11,0,0,1,.65-4.06A11.4,11.4,0,0,1,711,511.7a6.12,6.12,0,0,1,3.6-1.53,11.55,11.55,0,0,1,4.95.63,12.54,12.54,0,0,1,4.77,2.62,5.64,5.64,0,0,1,2,3.34,13.38,13.38,0,0,1-.93,5.2Z"/><path id="パス_100" data-name="パス 100" class="cls-3" d="M370.88,242.75c-.88,3.95-2.2,6.37-4.83,7.48A105.79,105.79,0,0,1,348.48,252c-6.15.22-12.08.44-16.69.66-4.63,20.86-9.22,38.87-14.06,56.66-2,7.68-4.38,15.81-7.47,25a100.82,100.82,0,0,1-4.63,13.17,6.55,6.55,0,0,1-6.36,4.18,28.22,28.22,0,0,1-5.93-.88c-5.28-.88-7.25-2.85-7.7-5.27v-1.1c0-2.2,2.21-4.63,4-7.48,2-3.51,4.62-9.88,7-15.37a221,221,0,0,0,8.12-23.5,217.05,217.05,0,0,0,6.59-22.18c1.75-7.48,3.07-14.71,5.05-22.62-6.15.44-13.4,1.1-19.1,1.32a66.68,66.68,0,0,0-7,.88c-.65,0-2,.22-2.84.22a5.93,5.93,0,0,1-2.64-.66,4.59,4.59,0,0,1-2.16-4.6,11.46,11.46,0,0,1,.44-3.73c.88-4,2.85-8.13,6.36-8.79a10.19,10.19,0,0,1,1.1-.22c2.2,0,5.05,1.32,7.48,1.32a63.14,63.14,0,0,0,9.22.44c3.52,0,7.48-.22,11.63-.44.45-3.07,1.11-6.15,2-10.54.21-1.76.87-6.15,1.09-8.56a5.78,5.78,0,0,0,.22-2c0-1.32-.22-2.64-.22-3.07a40.78,40.78,0,0,1-.66-4.39,3.21,3.21,0,0,1,.66-2.2c1.32-2.2,5.49-2.64,9-2.64h.66c4,0,7,.44,8.57,2.64a6.25,6.25,0,0,1,.66,2.85,47.84,47.84,0,0,1-2.2,9.88c-1.55,6.37-2.2,11.2-3.73,17.13a126.74,126.74,0,0,0,14.92-1.76,114.45,114.45,0,0,0,11.42-2.63,23.6,23.6,0,0,0,4.18-1.32,16.11,16.11,0,0,1,3.51-.66A2,2,0,0,1,370,232c1.32.66,1.76,2.2,1.76,4.39a29.79,29.79,0,0,1-.87,6.37M433,330.59a56.57,56.57,0,0,1-1.1,5.92c-.66,3.74-1.78,6.15-4.17,7-5.72,2.63-21.75,4.17-32.95,4.17h-2.2a128.19,128.19,0,0,1-37.1-4.82,24.36,24.36,0,0,1-13.17-11.2,15.76,15.76,0,0,1-1.76-7.68,33.93,33.93,0,0,1,4.18-15.37,10.82,10.82,0,0,1,8.79-5.93,2.32,2.32,0,0,1,1.74.44,3.47,3.47,0,0,1,2.42,3.51,14.3,14.3,0,0,1-1.32,5,19.81,19.81,0,0,0-1.75,7.91c0,.87.22,1.75.22,2.63,1.09,4.83,7.25,6.81,11.63,7.91a94.53,94.53,0,0,0,18.45,2c3.07,0,6.15-.22,9.45-.44a150.78,150.78,0,0,0,20-2.42,67.1,67.1,0,0,0,9.87-3.07,21,21,0,0,1,6.81-1.54,1.3,1.3,0,0,1,.88.22c1.1.44,1.32,1.32,1.32,2.85,0,.88-.22,2-.22,2.85M428.63,277c-.87,2.63-3.08,5.93-5.27,6.37h-.66c-2.64,0-7.25-1.32-11.63-1.76a166,166,0,0,0-20.43-1.1,145,145,0,0,0-19.09,1.32,114,114,0,0,1-13,2.2,3.38,3.38,0,0,1-1.54-.22,4.31,4.31,0,0,1-2.63-4.63v-2.42c.45-5.49,2.63-9.88,5.72-10.1h.21c1.78,0,3.74.88,5.93.88h.21c3.52,0,7-.66,11.42-.88s12.08-.88,18-.88h.88c5.69,0,9.22.44,15.15.44,3.51,0,5.72-.44,9-.66,2.2,0,4.6-.66,6.58-.66a4.5,4.5,0,0,1,2.2.44c.87.44,1.09,1.76,1.09,3.29a23.27,23.27,0,0,1-2.19,8.35"/><path id="パス_101" data-name="パス 101" class="cls-3" d="M577.51,301.6a35.34,35.34,0,0,1-18,29C549,337,535.35,340,522.83,342a72,72,0,0,1-10.76,1.32,14.48,14.48,0,0,1-5.49-.88,13,13,0,0,1-5.69-4.84,15.76,15.76,0,0,1-3.51-7.9,3,3,0,0,1,.66-2,4.79,4.79,0,0,1,3.73-1.31h.88a23,23,0,0,0,4.39.43h.66a145.13,145.13,0,0,0,29.64-3.73,53.59,53.59,0,0,0,19.76-9.44A24.49,24.49,0,0,0,563,296.54c0-.66-.21-1.32-.21-2a21,21,0,0,0-9.44-17.35,26.61,26.61,0,0,0-16.69-5.05,103.4,103.4,0,0,0-13.83,1.32c-3.3.66-10.76,3.07-15.81,4.63-4.83,1.53-9.45,3.07-15,5-5.69,2-10.53,3.74-16.69,6.37a27.17,27.17,0,0,1-9,2.64h-1.32a8.84,8.84,0,0,1-6.15-8.35c0-1.09-.22-1.75-.22-2.63a10.62,10.62,0,0,1,2.63-7.48,6.41,6.41,0,0,1,3.52-.66c1.32,0,2.42.22,3.73.22h1.32c6.37-1.31,11.64-2.85,17.57-4.63,4.83-1.31,8.78-2.84,14-4.17a161.37,161.37,0,0,1,34.26-5.27c2.19,0,4.39.22,6.58.44,16,1.54,28.33,9.44,33.6,25.25a44.91,44.91,0,0,1,1.75,12.3,32.28,32.28,0,0,1-.22,4.39"/><path id="パス_102" data-name="パス 102" class="cls-3" d="M750.76,297.65a6.82,6.82,0,0,1-2.2,3.52,28.17,28.17,0,0,1-12.74,5.71h-.66c-3.07-.44-6.15-5.7-10.1-11.65a74.31,74.31,0,0,1-6.36-12.51,270.68,270.68,0,0,1-10.54-28.11c.44,6.37.66,13.4.66,19.55,0,3.29,0,6.36-.22,8.78-.23,3.29-.44,6.37-.66,9a74.69,74.69,0,0,1-1.55,8.13A55.69,55.69,0,0,1,652,340.69c-20.21,0-39.52-10.1-45-27a60.84,60.84,0,0,1-2.41-18,67.22,67.22,0,0,1,1.53-15.37,109.1,109.1,0,0,1,15.59-33.17c3.3-5.27,8.57-11.41,12.52-16.91-4.39.88-8.57,1.1-12.95,2a104.3,104.3,0,0,0-13.62,3.29,7.42,7.42,0,0,1-2.85.66,4.65,4.65,0,0,1-2.64-.66,8,8,0,0,1-3.51-6.14v-1.54c0-3.3.66-8.35,3.95-9.23.22-.22.88-.22,1.33-.22a15.06,15.06,0,0,1,3.06.44,8.22,8.22,0,0,0,2.21.22,27.46,27.46,0,0,0,4-.22c5.26-.44,9.44-.66,14.92-1.32a115.17,115.17,0,0,0,15.81-2c3.73-.44,7.48-4,11-4H655c2.63,0,5.06,2.63,7.69,5.49a13,13,0,0,1,3.3,7v.66c-.45,1.54-2,3.07-5.5,4.17a42.32,42.32,0,0,0-12.08,7.25c-10.32,10.54-22.84,27.23-26.79,41.28a75.52,75.52,0,0,0-2.4,18,29.22,29.22,0,0,0,7,20.65,36.51,36.51,0,0,0,18.87,8.34,40.15,40.15,0,0,0,7.25.66,37.72,37.72,0,0,0,17.57-3.73c15.59-6.59,22.19-20.42,24.59-38.21a253.39,253.39,0,0,0,2.2-35.79c0-5.27-.22-10.1-.22-14.05,0-2-.89-5.7-.89-8.79a5.21,5.21,0,0,1,.89-3.51,12.23,12.23,0,0,1,6.81-3.73c1.09,0,2.19-.22,3.29-.22a8,8,0,0,1,6.15,2.19c.87.66,1.1,2.42,1.1,4.18,0,1.31-.23,2.63-.23,3.95v.22a32.83,32.83,0,0,0,1.54,8.34,129.68,129.68,0,0,0,25.25,50.29,89,89,0,0,0,6.15,6.58c1.32,1.1,4.18,2.41,4.18,4.63Zm-11.42-68.07h-1.1a20.91,20.91,0,0,1-19.54-20.86,18.51,18.51,0,0,1,18.37-18.66h1.38A21.07,21.07,0,0,1,758,210.92a18.65,18.65,0,0,1-18.64,18.66h0m-1.1-31.4h-.44A10.69,10.69,0,0,0,727,208.78c0,.13,0,.25,0,.38a12.08,12.08,0,0,0,11.41,12.29h.66A10.5,10.5,0,0,0,749.67,211c0-.18,0-.35,0-.52a12.25,12.25,0,0,0-11.42-12.3"/><path id="パス_103" data-name="パス 103" class="cls-3" d="M490.33,525.39a15.6,15.6,0,0,1-8.12,4H482c-3.08-.22-6.16-3.51-8.79-5.27-3.07-2-5.92-3.29-9.66-5.93-4.17,6.81-7.25,11.2-14.71,13.84a51.06,51.06,0,0,1-19.54,3.73c-2.35,0-4.7-.17-7-.43-9.22-1.32-15.81-4-20.42-10.55a18.38,18.38,0,0,1-3.74-11,13.09,13.09,0,0,1,.89-4.83,19.08,19.08,0,0,1,11-13.17,49.06,49.06,0,0,1,17.12-2.64h3.29A109.83,109.83,0,0,1,453,497.06a134,134,0,0,0,1.31-18.45q0-6.92-.65-14.49c-.44-6.81-2.85-16.47-7.91-20.86A25.2,25.2,0,0,0,431,438.87a48,48,0,0,0-19.76,5.05,196.16,196.16,0,0,0-32.93,20.86c-2.43,2-8.36,6.81-10.54,9,0,2.85.21,5.49.21,8.78,0,3.52-.21,7.25-.21,11,0,2.64,0,5.7.21,8.56.22,10.77.88,14.94,1.54,25.48a53.4,53.4,0,0,1,.88,7.24,2.71,2.71,0,0,1-.22,1.32,8.38,8.38,0,0,1-8.56,5.49h-.23a7.39,7.39,0,0,1-7.9-5.48,9.09,9.09,0,0,1-.45-3.73c0-3.08.45-7,.45-9.66.22-3.3,1.32-27.66,1.75-40.19a79.74,79.74,0,0,0-7.48,7.68,78.06,78.06,0,0,0-7.9,9.23c-2.2,3.73-5.27,7-8.13,11-1.52,2-4.38,5.48-5.48,5.69a5.37,5.37,0,0,1-1.78.22c-1.75,0-2.85-1.31-4.63-3.73a17.49,17.49,0,0,1-3.89-9.44v-1.1c.66-2.2,5.26-4.63,7-6.36a170.81,170.81,0,0,0,17.8-19.55C346.73,469,350,463.9,356.18,456c0-5.49,0-12.07.22-16.25a124.26,124.26,0,0,0-18,4.83,94.4,94.4,0,0,1-10.75,3.52,10,10,0,0,1-2.43.22c-3.72,0-5.49-2-5.49-6.8,0-3.29,1.32-10.11,5.06-10.55a2.39,2.39,0,0,1,1.09-.22c1.32,0,2.63.22,3.74.22.21.22.87.22,1.32.22a38.56,38.56,0,0,0,4.8-.43c7.69-1.1,14.93-3.29,21.74-4.39,0-4.83,0-8.34.22-17.81v-.65a18.54,18.54,0,0,0-.65-5.7,7.28,7.28,0,0,1-.66-2.64,8.44,8.44,0,0,1,.66-3.29c.43-2.41,4.82-4.39,9.43-5a13.64,13.64,0,0,1,2.85-.21,6,6,0,0,1,6.59,4.39,1.66,1.66,0,0,1,.22,1.09,22,22,0,0,1-1.75,6.37,26.18,26.18,0,0,0-1.32,6.36,89.2,89.2,0,0,0-1.32,13.84c4.39,2,10.11,4.63,10.11,8.56a5,5,0,0,1-.22,1.76A56.93,56.93,0,0,1,375.7,440c-1.55,1.76-2.43,2.85-4.83,5.93l-.44,8.79c14.49-11.19,32.72-23.72,49.85-27.88a52.83,52.83,0,0,1,12.08-1.55A37.51,37.51,0,0,1,457.83,434c7.9,7.25,10.54,22,11.65,33.38a98.5,98.5,0,0,1,.65,11c0,2-.22,4.38-.22,6.8a144.09,144.09,0,0,1-1.75,19.11c4.82,2,8.56,3.95,13.17,5.92a73,73,0,0,0,8.34,3.3c2.42.66,5.28,1.32,6.15,2.85a4.1,4.1,0,0,1,.45,1.53c0,2.65-3.3,5.28-5.94,7.48m-54.24-19.34a74.65,74.65,0,0,0-9.22-.66,40.27,40.27,0,0,0-5.49.23,15.63,15.63,0,0,0-9,4.18,5.63,5.63,0,0,0-.89,3.06,6.82,6.82,0,0,0,1.78,4.17,23,23,0,0,0,10.1,3.74c2.42.22,4.62.45,6.8.45a28,28,0,0,0,5.93-.45,22.38,22.38,0,0,0,10.09-4.39,20.76,20.76,0,0,0,4.18-5.7,43.34,43.34,0,0,0-14.29-4.63"/><path id="パス_104" data-name="パス 104" class="cls-3" d="M681.16,431c-1.53,3.29-5.06,8.34-8.12,9.22-.89,0-1.78.22-2.63.22a66.14,66.14,0,0,1-10.11-1.32c-6.81-1.09-9.88-1.31-18.67-2.18A234.25,234.25,0,0,0,616,435.8a35.82,35.82,0,0,0-.24,4.63c0,2.85.24,5.7.24,8.78,0,6.59.42,13.4.66,20a56,56,0,0,1,2.63,17.34A47.58,47.58,0,0,1,618.15,498,62.7,62.7,0,0,1,601,528.05a118.5,118.5,0,0,1-12.28,10.54,26.53,26.53,0,0,1-13.4,5.69,12.36,12.36,0,0,1-7.7-2.63,25.94,25.94,0,0,1-4.6-2.85c-1.31-.88-3.95-2.41-3.95-4.39V534c.43-1.55,2.4-1.78,4.18-2.2,2-.66,3.5-1.1,4.6-1.54a89.91,89.91,0,0,0,20.41-10.76A48.45,48.45,0,0,0,603.43,498a24,24,0,0,1-6.37,3.07,33.15,33.15,0,0,1-7.68.88,23.82,23.82,0,0,1-19.33-9.22,24.88,24.88,0,0,1-5.49-16v-2c.88-12.74,10.1-25,24.6-25.26h.42a27.22,27.22,0,0,1,12.08,2.85V435.59h-.43c-4.84,0-13.62.43-21.3.43-6.59.23-12.74.88-20,1.32A159.61,159.61,0,0,0,542.14,440c-4.83.66-9.65,3.07-13.6,3.52a7,7,0,0,1-2,.22,7.36,7.36,0,0,1-5.93-2.42,7.54,7.54,0,0,1-1.32-5.27,20.88,20.88,0,0,1,.45-4.17c.43-3.07,3.51-10.76,7.24-11.86h.66a10,10,0,0,1,4.17,1.76,17.94,17.94,0,0,0,9,1.54h.24c9.43,0,17.55-.44,26.78-.44h.68c10.75,0,20.86-.88,32.48-.88h.89v-5.5c0-4-.23-8.56-.44-11.42a55.17,55.17,0,0,1-1.1-8.78v-.21c0-2.85,4-4.84,8.78-5.05h1.32a8.43,8.43,0,0,1,7.48,2.63,4.53,4.53,0,0,1,1.32,3.74c0,.66-.22,1.32-.22,2a50.91,50.91,0,0,0-1.1,7.48c-.22,5.48-1.54,11-1.75,15.14h3.5c7,0,14.05.23,20.86.23h4.18a236.3,236.3,0,0,0,27.89-1.55c1.31-.22,3.28-.88,5.06-1.31a9.45,9.45,0,0,1,3.28-.66,3.23,3.23,0,0,1,1.54.22,3.57,3.57,0,0,1,1.1,3.07,24.73,24.73,0,0,1-2.42,9m-85.63,30.3a10.71,10.71,0,0,0-5.49-1.31,12,12,0,0,0-5.5,1.31A14.73,14.73,0,0,0,578,473.79c0,4.83,1.53,10.33,4.84,12.3a17.35,17.35,0,0,0,8.33,2.19,9.77,9.77,0,0,0,3.52-.44c4.83-1.75,6.14-4.39,6.58-10.75v-2.2c0-5.93-1.31-10.76-5.69-13.62"/><path id="パス_105" data-name="パス 105" class="cls-4" d="M882.56,226.08a9.93,9.93,0,0,0-14-1.4,9.83,9.83,0,0,0-3,4.18L851,267.44l62.77,75.91L952,311.13Z"/><path id="パス_106" data-name="パス 106" class="cls-4" d="M1038.54,416.29,966.8,328.45l-38.29,32.22,66,79.87,37.07-6a11.25,11.25,0,0,0,6.91-18.22"/><path id="パス_107" data-name="パス 107" class="cls-4" d="M798.18,472.43l178.36-29-60.06-72.63L791.76,473.24Z"/><path id="パス_108" data-name="パス 108" class="cls-4" d="M781,452.18l-1.87,7.67L901.68,353.46l-57.08-69Z"/><path id="パス_109" data-name="パス 109" class="cls-5" d="M1070.27,281.35l-98.48,27.47,46.77-90.45a10.4,10.4,0,0,0-4.46-14,10.54,10.54,0,0,0-2.66-.94l-65.76-13.67a10.41,10.41,0,0,0-12.29,8.07,10.62,10.62,0,0,0-.19,2.81l8.38,124.68a10,10,0,0,0,7,9,10.58,10.58,0,0,0,1.32.62l120.38,33.58a10.38,10.38,0,0,0,13.17-10V291.35A10.39,10.39,0,0,0,1073.05,281a10,10,0,0,0-2.78.39"/><path id="パス_110" data-name="パス 110" class="cls-5" d="M966.62,328.79l-169,141.86A11.42,11.42,0,0,1,783,453.16L951.93,311.31Z"/><path id="パス_111" data-name="パス 111" class="cls-5" d="M976.54,444.47l-132-160.19,6.23-16.93L994.55,440.53Z"/></g></svg>