<svg id="レイヤー_1" data-name="レイヤー 1" xmlns="http://www.w3.org/2000/svg" viewBox="0 0 1366 768"><defs><style>.cls-1{fill:#f858f1;}.cls-2{fill:#110e17;}</style></defs><g id="portfolio"><path class="cls-1" d="M181,381.11l30.44,13.37v18.95L162.5,389V373l48.92-24.53V367.4Z"/><path class="cls-2" d="M294.42,368.21l-6.32-.54q-7.8,0-10.55,6.85v48.05H258.46V349.86h18l.53,7.86q4.51-9.2,12.44-9.2a13.38,13.38,0,0,1,5.24.87Z"/><path class="cls-2" d="M339.91,415.92a18.74,18.74,0,0,1-15.86,8q-10,0-15.18-6.89T303.69,397V349.86h19v47.58q.14,10.62,7.06,10.62a9.79,9.79,0,0,0,9.4-5.65V349.86h19.16v72.71H340.45Z"/><path class="cls-2" d="M407.79,368.21l-6.32-.54q-7.8,0-10.55,6.85v48.05H371.84V349.86h17.94l.54,7.86q4.5-9.2,12.43-9.2a13.35,13.35,0,0,1,5.24.87Z"/><path class="cls-2" d="M453.29,415.92a18.75,18.75,0,0,1-15.86,8q-10,0-15.19-6.89T417.06,397V349.86h19v47.58q.14,10.62,7.06,10.62a9.82,9.82,0,0,0,9.41-5.65V349.86H471.7v72.71H453.82Z"/><path class="cls-2" d="M491.59,354.77l-8.73-5.31a43.15,43.15,0,0,0,5-18.42V319.35h14.92V330a33.94,33.94,0,0,1-3.19,13.2A34.7,34.7,0,0,1,491.59,354.77Z"/><path class="cls-2" d="M537.37,403.08a5.9,5.9,0,0,0-2.32-4.46q-2.32-2.06-10.32-5.55-11.76-4.77-16.16-9.88a18.76,18.76,0,0,1-4.4-12.7,20.32,20.32,0,0,1,6.89-15.76q6.88-6.21,18.24-6.21,12,0,19.16,6.18t7.19,16.6h-19q0-8.88-7.39-8.87a6.59,6.59,0,0,0-6.93,7.12,5.5,5.5,0,0,0,2.16,4.27q2.14,1.85,10.14,5.27,11.63,4.31,16.43,9.58t4.81,13.68A19.1,19.1,0,0,1,548.52,418q-7.32,5.92-19.22,5.92a30.52,30.52,0,0,1-14.11-3.13,23.67,23.67,0,0,1-9.58-8.7,22.48,22.48,0,0,1-3.46-12h18.08c.09,3.32.86,5.8,2.32,7.46s3.84,2.49,7.16,2.49Q537.36,410,537.37,403.08Z"/><path class="cls-2" d="M656.05,388.5q0,17.14-5.88,26.28t-17.51,9.14a16.92,16.92,0,0,1-14.24-7.19v33.8h-19V349.86H617l.68,6.65a17.06,17.06,0,0,1,14.85-8q11.63,0,17.5,8.46t6,25.94Zm-18.95-4.77q0-10.55-2.32-14.92T627,364.44a9,9,0,0,0-8.53,4.91v34.07q2.55,4.71,8.66,4.71,5.65,0,7.83-4.78t2.19-14.85Z"/><path class="cls-2" d="M665.32,383.87q0-16.55,7.8-25.95t21.57-9.4q13.9,0,21.71,9.4T724.19,384v4.64q0,16.59-7.73,25.94t-21.63,9.34q-14,0-21.74-9.38t-7.77-26Zm19.09,4.77q0,19.49,10.42,19.49,9.6,0,10.34-16.27l.07-8c0-6.64-.92-11.55-2.75-14.76s-4.44-4.8-7.8-4.8-5.74,1.6-7.56,4.8-2.72,8.12-2.72,14.76Z"/><path class="cls-2" d="M771.91,368.21l-6.32-.54q-7.8,0-10.55,6.85v48.05H736V349.86H753.9l.54,7.86q4.5-9.2,12.43-9.2a13.35,13.35,0,0,1,5.24.87Z"/><path class="cls-2" d="M803.76,332v17.88h9.75v14.25h-9.75v36.14c0,2.87.39,4.85,1.18,5.92s2.29,1.62,4.53,1.62a18,18,0,0,0,4.51-.47l-.14,14.78a29.59,29.59,0,0,1-10.48,1.82q-18.42,0-18.62-21.13V364.11h-8.4V349.86h8.4V332Z"/><path class="cls-2" d="M828.29,422.57V364.11h-8.8V349.86h8.8v-6.52q.06-12,6.35-18.71T852,317.94a36.52,36.52,0,0,1,8.61,1.34l-.14,15.19a15.84,15.84,0,0,0-4.64-.6q-8.46,0-8.46,10.08v5.91h11.35v14.25H847.38v58.46Z"/><path class="cls-2" d="M866.8,383.87q0-16.55,7.79-25.95t21.58-9.4q13.91,0,21.7,9.4t7.8,26.08v4.64q0,16.59-7.73,25.94t-21.64,9.34q-14,0-21.74-9.38t-7.76-26Zm19.08,4.77q0,19.49,10.42,19.49,9.62,0,10.35-16.27l.07-8c0-6.64-.92-11.55-2.76-14.76s-4.43-4.8-7.79-4.8-5.75,1.6-7.56,4.8-2.73,8.12-2.73,14.76Z"/><path class="cls-2" d="M957.46,422.57H938.37V319.35h19.09Z"/><path class="cls-2" d="M972.17,331a9.83,9.83,0,0,1,2.83-7.25,11.42,11.42,0,0,1,15,0,9.82,9.82,0,0,1,2.82,7.25,10.35,10.35,0,1,1-20.7,0Zm20,91.53H973.05V349.86h19.08Z"/><path class="cls-2" d="M1004.63,383.87q0-16.55,7.8-25.95t21.57-9.4q13.9,0,21.71,9.4T1063.5,384v4.64q0,16.59-7.73,25.94t-21.64,9.34q-14,0-21.74-9.38t-7.76-26Zm19.09,4.77q0,19.49,10.41,19.49,9.61,0,10.35-16.27l.07-8c0-6.64-.92-11.55-2.75-14.76s-4.44-4.8-7.8-4.8-5.75,1.6-7.56,4.8-2.72,8.12-2.72,14.76Z"/><path class="cls-1" d="M1114,431h-13.91l29.37-106.24h13.91Z"/><path class="cls-1" d="M1184.87,380.84l-31-13.51V348.52l49.6,24.46v16l-49.6,24.53V394.68Z"/></g></svg>