<svg id="レイヤー_1" data-name="レイヤー 1" xmlns="http://www.w3.org/2000/svg" viewBox="0 0 1366 768"><defs><style>.cls-1{fill:#f9a11b;}.cls-2{fill:#ff5948;}.cls-3{fill:#fcfdfd;}</style></defs><g id="Fribo"><path class="cls-1" d="M292.62,207.1c83.74,18.54,125.17,27,208.21,25.43a366.77,366.77,0,0,1,0,116.53,350.71,350.71,0,0,1-147.21-1.59c-1.59,14.83-2.29,41.32-2.29,41.32a173.69,173.69,0,0,0,80.57,7.77,218,218,0,0,1-2.47,47.32A108.86,108.86,0,0,1,348,442.82,465.4,465.4,0,0,0,346,556a69.26,69.26,0,0,1-48.31,1.06A1141.81,1141.81,0,0,1,292.62,207.1Z"/><path class="cls-1" d="M456.75,402.91a460,460,0,0,0,0,153.44,92.52,92.52,0,0,1,43.55,3.18c3.17-19.25,5.64-84.76,5.64-84.76a70.41,70.41,0,0,1,62.23,4.07c4.41-13.78,13.4-48,13.4-48s-43.54-20.66-72.81-4.59c0-5.83,2.82-20.31,2.82-20.31a68.66,68.66,0,0,0-54.83-3Z"/><path class="cls-2" d="M621.94,420.75a35.67,35.67,0,1,0-35.61-35.67A35.65,35.65,0,0,0,621.94,420.75Z"/><path class="cls-1" d="M663.73,255.66A2793.07,2793.07,0,0,0,705,558.29c97.14-5.12,141-38.32,143.33-122.18,0-80.34-88.15-114.42-119-32.85,0-46.08,6.88-126.95,23.62-157.49C720.14,229.88,672.54,240.12,663.73,255.66Z"/><path class="cls-3" d="M816.1,461.37c9.76-1.23,15.74-17.6,13.37-36.56s-12.21-33.35-22-32.12-15.74,17.59-13.37,36.56S806.34,462.59,816.1,461.37Z"/><path class="cls-2" d="M621.24,560.23c-25.74,0-51.3.88-58.53,0,2.29-5.12,31-118.65,37-132.07a76.45,76.45,0,0,0,21.51,2.3,74.44,74.44,0,0,0,21.33-2.3c6,13.42,35.26,127,37.2,132.07Z"/><path class="cls-1" d="M1084.37,394.44c1.24,13.42-16.39,26.48-17.63,39.19s12.87,30.2,8.82,42-25.92,17.65-33,27.36-4.76,33.2-15.16,40.08-29.09-4.06-42.31-2.82S956.38,556,944,550.7s-12.52-26.84-22.21-36.55-30.68-8.83-37.38-20.84,4.94-30,1.06-43.08-23.45-21.72-24.68-35.31,16.39-26.66,17.63-39.2-12.87-30.19-8.82-42.2,25.92-17.66,33-27.37,4.76-33,15.16-40.08,29.09,4.24,42.31,3,28.74-15.9,41.08-10.6,12.52,26.84,22.21,36.73,30.68,8.83,37.38,20.66-4.76,30,0,43.08S1083.14,380.84,1084.37,394.44Z"/><path class="cls-3" d="M890.44,408l78.81-59S1005,442.46,890.44,408Z"/></g></svg>