<svg version="1.1" id="レイヤー_1" xmlns="http://www.w3.org/2000/svg" x="0" y="0" width="1366" height="768" xml:space="preserve"><style>.st0{display:none}.st14,.st15,.st8{display:inline;fill:#333}.st14,.st15{fill:#64954f}.st15{fill:none;stroke:#000;stroke-miterlimit:10}.st18{fill:#231815}</style><g id="Spark" class="st0"><linearGradient id="SVGID_1_" gradientUnits="userSpaceOnUse" x1="210.041" y1="424.533" x2="255.955" y2="345.007"><stop offset=".001" stop-color="#d00ba6"/><stop offset="1" stop-color="#ff4d4d"/></linearGradient><path d="M177.974 350.66s19.316-21.406 41.355-26.799c16.734 46.986 46.75 133.026 46.75 133.026L177.974 350.66z" fill="url(#SVGID_1_)"/><linearGradient id="SVGID_2_" gradientUnits="userSpaceOnUse" x1="322.916" y1="430.273" x2="322.916" y2="274"><stop offset=".001" stop-color="#ff8500"/><stop offset="1" stop-color="#f4cb00"/></linearGradient><path d="M314.781 274l-38.63 156.273s80.247-114.75 93.53-125.085c-7.782-9.773-32.28-26.844-54.9-31.188z" fill="url(#SVGID_2_)"/><linearGradient id="SVGID_3_" gradientUnits="userSpaceOnUse" x1="231.023" y1="356.12" x2="277.093" y2="310.05"><stop offset=".001" stop-color="#37dd8f"/><stop offset="1" stop-color="#2d81ff"/></linearGradient><path d="M230.612 289.333s7.027-11.026 19.765-5.999c2.066 18.25 14.437 106.577 14.437 106.577l-34.202-100.578z" fill="url(#SVGID_3_)"/><linearGradient id="SVGID_4_" gradientUnits="userSpaceOnUse" x1="335.148" y1="343.06" x2="393.239" y2="343.06"><stop offset="0" stop-color="#0000af"/><stop offset="1" stop-color="#b806cb"/></linearGradient><path d="M378.55 312.927s-33.151 46.004-43.298 60.041c-2.959 4.094 57.986-48.922 57.986-48.922s-3.472-11.131-14.688-11.119z" fill="url(#SVGID_4_)"/><linearGradient id="SVGID_5_" gradientUnits="userSpaceOnUse" x1="286.473" y1="411.586" x2="400.825" y2="411.586"><stop offset="0" stop-color="#ffff37"/><stop offset="1" stop-color="#61fe58"/></linearGradient><path d="M286.473 447.098s32.85-52.63 107.025-71.025c6.916 11.386 7.328 43.92 7.328 43.92s-46.648-10.524-114.353 27.105z" fill="url(#SVGID_5_)"/><linearGradient id="SVGID_6_" gradientUnits="userSpaceOnUse" x1="190.951" y1="400.558" x2="234.362" y2="475.748"><stop offset="0" stop-color="#ff0"/><stop offset="1" stop-color="#ff9763"/></linearGradient><path d="M176.724 428.208s.113-15.02 8.336-24.25c10.813 7.721 71.945 58.717 71.945 58.717s-39.89-23.585-80.281-34.467z" fill="url(#SVGID_6_)"/><linearGradient id="SVGID_7_" gradientUnits="userSpaceOnUse" x1="151.66" y1="384.045" x2="193.11" y2="384.045"><stop offset="0" stop-color="#00cdaf"/><stop offset="1" stop-color="#00a700"/></linearGradient><path d="M156.761 368.234s29.116 22.486 36.349 31.622c-16.927-10.906-22.669-14.321-41.11-21.697-1.896-6.216 4.761-9.925 4.761-9.925z" fill="url(#SVGID_7_)"/><path class="st8" d="M619.573 409.129c0 5.733-.727 10.887-2.177 15.466-1.452 4.579-3.369 8.618-5.752 12.117-2.384 3.5-5.175 6.476-8.376 8.934-3.202 2.457-6.515 4.467-9.938 6.03-3.426 1.564-6.907 2.719-10.441 3.462-3.538.744-6.868 1.116-9.995 1.116H460.887v-29.035h112.008c5.583 0 9.919-1.636 13.01-4.913 3.088-3.275 4.634-7.667 4.634-13.177 0-2.68-.41-5.137-1.228-7.371-.82-2.233-1.993-4.168-3.518-5.807-1.526-1.636-3.388-2.903-5.583-3.797-2.198-.893-4.634-1.34-7.314-1.34h-66.781c-4.689 0-9.753-.837-15.187-2.512-5.435-1.675-10.48-4.373-15.132-8.096-4.653-3.721-8.525-8.598-11.614-14.629s-4.634-13.401-4.634-22.111c0-8.711 1.545-16.062 4.634-22.055 3.089-5.992 6.961-10.87 11.614-14.629 4.652-3.759 9.697-6.477 15.132-8.153 5.434-1.675 10.498-2.512 15.187-2.512h98.831v29.034h-98.831c-5.51 0-9.809 1.676-12.898 5.025-3.09 3.35-4.634 7.781-4.634 13.29 0 5.583 1.544 9.994 4.634 13.232 3.089 3.239 7.387 4.858 12.898 4.858h67.003c3.128.075 6.439.503 9.94 1.285 3.499.782 6.979 1.993 10.441 3.63 3.462 1.638 6.756 3.704 9.883 6.197 3.127 2.496 5.899 5.491 8.319 8.99 2.419 3.5 4.336 7.521 5.752 12.06 1.411 4.543 2.12 9.68 2.12 15.411zM773.485 415.495c0 4.989-.634 9.474-1.898 13.456-1.266 3.984-2.942 7.483-5.025 10.498-2.084 3.015-4.505 5.583-7.259 7.705-2.755 2.121-5.639 3.852-8.653 5.192-3.016 1.34-6.05 2.328-9.102 2.959-3.054.634-5.957.949-8.71.949h-52.374v-29.035h52.374c3.87 0 6.774-1.005 8.71-3.015 1.935-2.01 2.904-4.913 2.904-8.71v-39.086c0-4.021-.988-6.996-2.959-8.934-1.974-1.935-4.858-2.903-8.655-2.903h-52.151c-3.948 0-6.925.987-8.934 2.958-2.01 1.974-3.016 4.858-3.016 8.655V494h-29.034V376.185c0-4.986.631-9.453 1.898-13.401 1.265-3.945 2.959-7.426 5.08-10.441 2.122-3.015 4.56-5.583 7.315-7.705 2.753-2.121 5.64-3.852 8.655-5.192a44.561 44.561 0 019.158-2.96c3.089-.631 5.974-.949 8.655-.949h52.374c4.986 0 9.454.634 13.401 1.898 3.945 1.267 7.426 2.942 10.441 5.025 3.015 2.086 5.583 4.506 7.705 7.259 2.122 2.755 3.852 5.639 5.192 8.655 1.34 3.015 2.326 6.05 2.96 9.101.632 3.054.949 5.957.949 8.71v39.31zM922.987 416.276c0 4.019-.709 8.358-2.122 13.01-1.416 4.653-3.705 8.971-6.868 12.953-3.166 3.984-7.297 7.314-12.395 9.995-5.101 2.68-11.299 4.021-18.594 4.021h-52.374c-4.021 0-8.358-.707-13.01-2.122-4.654-1.413-8.973-3.703-12.954-6.867-3.983-3.164-7.314-7.296-9.995-12.396-2.679-5.098-4.019-11.296-4.019-18.593 0-4.021.707-8.376 2.121-13.066 1.414-4.691 3.704-9.027 6.868-13.01 3.163-3.982 7.296-7.314 12.396-9.995 5.098-2.68 11.296-4.021 18.593-4.021h52.374v27.695h-52.374c-3.946 0-6.999 1.211-9.158 3.63-2.16 2.42-3.237 5.416-3.237 8.989 0 3.797 1.246 6.756 3.74 8.878 2.493 2.122 5.453 3.182 8.878 3.182h52.151c3.945 0 6.998-1.189 9.158-3.573 2.159-2.382 3.239-5.361 3.239-8.934v-40.538c0-3.797-1.173-6.812-3.518-9.044-2.346-2.234-5.304-3.35-8.878-3.35h-63.765v-27.583h63.765c4.021 0 8.357.708 13.01 2.122 4.652 1.414 8.97 3.704 12.954 6.867 3.982 3.166 7.314 7.298 9.995 12.396 2.68 5.1 4.021 11.299 4.021 18.593v40.761zM1053.419 364.572h-65.327c-3.948 0-6.925.987-8.934 2.958-2.01 1.974-3.016 4.858-3.016 8.655v80.069h-29.034v-80.069c0-4.986.631-9.453 1.898-13.401 1.265-3.945 2.959-7.426 5.08-10.441 2.122-3.015 4.56-5.583 7.315-7.705 2.753-2.121 5.64-3.852 8.655-5.192a44.561 44.561 0 019.158-2.96c3.089-.631 5.974-.949 8.655-.949h65.551v29.035zM1101.998 456.243h-29.035V284.491h29.035v171.752zm112.342 0h-41.878l-58.516-56.507c-3.278-2.976-4.803-6.7-4.579-11.167a15.12 15.12 0 011.619-5.862 13.613 13.613 0 013.852-4.635l53.044-42.77h46.457l-68.343 55.055 68.344 65.886z"/><linearGradient id="SVGID_8_" gradientUnits="userSpaceOnUse" x1="961.625" y1="376.53" x2="961.625" y2="456.255"><stop offset="0" stop-color="#333"/><stop offset="1" stop-color="#6d39bf"/></linearGradient><path fill="url(#SVGID_8_)" d="M947.108 376.53h29.034v79.725h-29.034z"/><linearGradient id="SVGID_9_" gradientUnits="userSpaceOnUse" x1="654.219" y1="414.275" x2="654.219" y2="494"><stop offset="0" stop-color="#333"/><stop offset="1" stop-color="#abf545"/></linearGradient><path fill="url(#SVGID_9_)" d="M639.702 414.275h29.034V494h-29.034z"/><linearGradient id="SVGID_10_" gradientUnits="userSpaceOnUse" x1="543.544" y1="441.737" x2="460.887" y2="441.737"><stop offset="0" stop-color="#333"/><stop offset="1" stop-color="#eb3e74"/></linearGradient><path fill="url(#SVGID_10_)" d="M460.887 427.219h82.657v29.035h-82.657z"/><linearGradient id="SVGID_11_" gradientUnits="userSpaceOnUse" x1="884.646" y1="349.375" x2="819.243" y2="349.375"><stop offset="0" stop-color="#333"/><stop offset="1" stop-color="#40a5d4"/></linearGradient><path d="M884.646 363.213v-27.606c-.547-.025-1.103-.071-1.638-.071h-63.765v27.583h63.765c.563.001 1.105.038 1.638.094z" fill="url(#SVGID_11_)"/><linearGradient id="SVGID_12_" gradientUnits="userSpaceOnUse" x1="1087.48" y1="364.216" x2="1087.48" y2="284.491"><stop offset="0" stop-color="#333"/><stop offset="1" stop-color="#f6c045"/></linearGradient><path fill="url(#SVGID_12_)" d="M1072.963 284.491h29.035v79.725h-29.035z"/></g><g id="IPC" class="st0"><path class="st14" d="M635.936 285.882s50.372 12.035 68.067 84.826c13.117 78.028-26.673 102.19-24.553 101.987 0 0-4.613 6.564-9.403 3.903s-1.597-9.048-1.597-9.048 31.485-31.101 20.734-92.151c-10.751-61.05-58.612-75.915-58.612-75.915l-.461-.1s-16.259 4.156-25.391-2.27c-75.882-58.437-3.14-14.438 1.178-12.414 6.733 2.824 2.606-2.606 2.606-2.606-74.717-52.563 7.168-8.688 7.168-8.688 5.647 2.824 3.475-1.738 3.475-1.738-82.102-59.32 9.021-7.321 9.021-7.321 10.394 6.954 7.745 20.323 7.745 20.323M451.078 285.98s-7.603-7.256 17.065-27.528 47.16-4.665 47.16-4.665l.022.482c2.041 9.076 10.998 23.999-22.053 41.946-28.059 15.237-35.567 3.673-35.567 3.673l-.859.518s-47.861 14.865-58.612 75.915 20.734 92.151 20.734 92.151 3.193 6.387-1.597 9.048c-4.79 2.661-9.403-3.903-9.403-3.903 2.12.203-37.671-23.959-24.553-101.987 17.695-72.791 68.067-84.827 68.067-84.827l-.404-.823z"/><path class="st14" d="M626.452 442.977c-4.264 6.95-1.755 18.801-1.755 18.801s63.924-6.518 55.651-48.883c-6.666-34.136-39.621-28.723-52.172-25.332-2.45.662-4.866-1.167-4.908-3.704-.594-36.387-7.369-39.436-7.369-39.436s-30.483-17.419-78.384-18.29c-47.901-.871-81.432 20.031-81.432 20.031s-8.274 33.531-8.709 65.755c-.435 32.225 5.661 72.287 44.418 88.4 0 0 4.042 4.68-2.027 2.946-6.069-1.734-44.296-16.575-56.214-15.451-11.918 1.124-14.841 7.645-16.64 11.018-1.799 3.373.675 14.167 11.018 17.315 10.344 3.148 64.908 17.074 107.524 17.826 42.616.752 103.03-15.542 103.03-15.542s10.278-5.014 8.022-16.044c-2.256-11.03-33.842-6.768-40.61-5.515-6.768 1.253-31.335 7.771-31.335 7.771s-12.054 4.109-2.643-2.583c0 0 47.186-16.852 50.805-90.338.118-2.401 1.396-5.102 3.762-5.527 8.303-1.489 28.225-6.734 32.304 7.952 6.558 23.605-28.035 21.818-32.336 28.83zm-25.339-84.521c-10.438 4.075-39.896 14.518-67.689 14.518-27.868 0-51.368-11.35-59.398-15.73-1.24-.676-1.128-2.49.184-3.013 8.337-3.323 32.345-11.782 60.684-11.782 28.153 0 56.072 9.181 66.188 12.884 1.446.53 1.466 2.563.031 3.123zM746.647 386.358c.244-.797-.625-1.471-1.336-1.035-4.967 3.049-21.372 10.343-30.824 22.288-9.514 12.023-10.847 26.518-12.236 31.171a.902.902 0 001.217 1.089c4.554-1.937 17.259-8.097 26.615-19.92 9.33-11.792 14.789-27.796 16.564-33.593zM734.342 322.674c.005-.833-1.022-1.229-1.577-.607-3.882 4.347-17.5 16.047-23.121 30.203-5.658 14.25-2.771 28.516-2.765 33.372.001.764.891 1.183 1.478.694 3.806-3.163 14.205-12.714 19.77-26.727 5.549-13.975 6.18-30.873 6.215-36.935zM714.641 273.707c-.078-.83-1.138-1.122-1.629-.448-3.433 4.71-15.826 17.7-20.019 32.343-4.221 14.74.064 28.651.551 33.482a.902.902 0 001.54.544c3.474-3.524 12.877-14.057 17.028-28.552 4.139-14.456 3.094-31.333 2.529-37.369zM464.7 311.995c.462-.694-.178-1.588-.984-1.374-5.632 1.499-23.439 3.793-35.913 12.533-12.557 8.797-17.983 22.304-20.646 26.364a.902.902 0 00.854 1.392c4.918-.552 18.854-2.818 31.203-11.469 12.315-8.628 22.126-22.4 25.486-27.446zM668.479 241.482c-.4-.731-1.49-.579-1.673.234-1.286 5.685-7.518 22.522-5.566 37.628 1.965 15.206 11.41 26.28 13.771 30.523a.902.902 0 001.629-.11c1.793-4.612 6.254-18.009 4.322-32.962-1.927-14.913-9.573-29.995-12.483-35.313zM340.378 386.358c-.244-.797.625-1.471 1.336-1.035 4.967 3.049 21.372 10.343 30.824 22.288 9.514 12.023 10.847 26.518 12.236 31.171a.902.902 0 01-1.217 1.089c-4.554-1.937-17.259-8.097-26.615-19.92-9.33-11.792-14.789-27.796-16.564-33.593zM352.683 322.674c-.005-.833 1.022-1.229 1.577-.607 3.882 4.347 17.5 16.047 23.121 30.203 5.658 14.25 2.771 28.516 2.765 33.372-.001.764-.891 1.183-1.478.694-3.806-3.163-14.205-12.714-19.77-26.727-5.549-13.975-6.18-30.873-6.215-36.935zM372.384 273.707c.078-.83 1.138-1.122 1.629-.448 3.433 4.71 15.826 17.7 20.019 32.343 4.221 14.74-.064 28.651-.551 33.482a.902.902 0 01-1.54.544c-3.474-3.524-12.877-14.057-17.028-28.552-4.139-14.456-3.094-31.333-2.529-37.369zM419.911 241.482c.4-.731 1.49-.579 1.673.234 1.286 5.685 7.518 22.522 5.566 37.628-1.965 15.206-11.41 26.28-13.771 30.523a.902.902 0 01-1.629-.11c-1.793-4.612-6.254-18.009-4.322-32.962 1.926-14.913 9.572-29.995 12.483-35.313zM438.852 385.904c.075-.83-.914-1.311-1.52-.738-4.234 4.005-18.789 14.517-25.582 28.149-6.838 13.723-5.162 28.182-5.565 33.021a.902.902 0 001.415.816c4.058-2.832 15.225-11.472 21.95-24.967 6.705-13.458 8.757-30.243 9.302-36.281zM446.346 348.448c.322-.769-.476-1.526-1.226-1.163-5.246 2.539-22.296 8.163-32.89 19.107-10.664 11.016-13.434 25.306-15.28 29.797a.902.902 0 001.102 1.205c4.724-1.474 17.979-6.337 28.466-17.17 10.459-10.804 17.484-26.185 19.828-31.776zM623.45 311.995c-.462-.694.178-1.588.984-1.374 5.632 1.499 23.439 3.793 35.913 12.533 12.557 8.797 17.983 22.304 20.646 26.364a.902.902 0 01-.854 1.392c-4.918-.552-18.854-2.818-31.203-11.469-12.315-8.628-22.126-22.4-25.486-27.446zM641.804 348.448c-.322-.769.476-1.526 1.226-1.163 5.246 2.539 22.296 8.163 32.89 19.107 10.664 11.016 13.434 25.306 15.28 29.797a.902.902 0 01-1.102 1.205c-4.724-1.474-17.979-6.337-28.466-17.17-10.458-10.804-17.484-26.185-19.828-31.776zM776.484 531.71h-4.471a2.512 2.512 0 01-2.505-2.505v-292.7a2.512 2.512 0 012.505-2.505h4.471a2.512 2.512 0 012.505 2.505v292.7a2.513 2.513 0 01-2.505 2.505zM1012.244 404.081s.712 5.388-4.778 5.388c-5.49 0-4.575-11.081-4.575-11.081l22.773-.305c0-16.063-1.83-27.653-18.198-27.653-16.368 0-18.605 15.961-18.605 22.875 0 6.913-.305 26.636 18.401 26.636s18.096-15.86 18.096-15.86h-13.114zm-4.786-23.485c5.301-.079 4.668 8.782 4.668 8.782l-9.296.183s-.673-8.886 4.628-8.965zM813.971 266.648h-13.93l-.142 61.32h14.072zM849.419 294.433v33.275h13.898v-36.75s-1.751-11.208-11.092-11.493c-10.819-.329-11.225 4.811-11.225 4.811l-.261-4.049-13.37.173v47.173H841v-32.741s.267-4.544 4.276-4.544c4.009.002 4.143 4.145 4.143 4.145zM943.504 328.887c18.706 0 18.096-15.86 18.096-15.86h-13.115s.712 5.388-4.778 5.388c-5.49 0-4.575-11.081-4.575-11.081l22.773-.305c0-16.063-1.83-27.653-18.198-27.653-16.368 0-18.605 15.961-18.605 22.875 0 6.913-.305 26.636 18.402 26.636zm.272-39.314c5.301-.079 4.668 8.782 4.668 8.782l-9.296.183c.001 0-.673-8.886 4.628-8.965zM899.171 294.433v33.275h13.898v-36.75s-1.751-11.208-11.092-11.493c-10.819-.329-11.225 4.811-11.225 4.811l-.261-4.049-13.37.173v47.173h13.631v-32.741s.267-4.544 4.276-4.544c4.01.002 4.143 4.145 4.143 4.145zM865.387 419.603c18.376 0 18.498-15.558 18.498-15.558H870.9s-.245 5.268-4.778 5.268-4.778-11.025-4.778-11.025h22.786s3.675-28.299-17.396-28.299-19.356 27.931-19.356 27.931-.367 21.683 18.009 21.683zm.98-38.956c5.39 0 4.288 8.575 4.288 8.575h-9.065c-.001 0-.613-8.575 4.777-8.575zM991.184 295.948c2.846-2.135 8.354-1.595 8.354-1.595v-14.897s-4.559.208-7.401 1.872c-2.842 1.664-4.783 6.377-4.783 6.377v-7.417l-13.453-.2v47.782h13.826v-25.213c.001.001.611-4.574 3.457-6.709zM813.813 357.493l-13.843-.123v61.13h13.843v-23.766s24.623 2.573 24.623-18.621c0-21.192-24.623-18.62-24.623-18.62zm.245 26.461v-15.803s10.045-2.45 10.29 7.963c.245 10.413-10.29 7.84-10.29 7.84zM896.258 385.057l12.863.123s-.245-5.268 4.043-5.268 3.675 5.023 3.675 5.023v4.533s-19.601-2.205-22.418 14.088c0 0-.858 6.86 3.308 12.005 4.165 5.145 11.025 3.92 11.025 3.92s6.738-.858 8.82-4.533l.612 3.798 12.618-.122-.368-34.301s.245-5.88-2.573-8.82c-2.818-2.94-6.125-5.268-14.211-5.268-8.084-.001-17.394 2.817-17.394 14.822zm20.581 19.356c.047 4.646-8.931 7.379-8.698-.49.232-7.837 8.82-5.88 8.82-5.88l-.122 6.37zM945.822 461.036c-22.474 0-19.145 27.801-19.145 27.801s0 21.808 18.645 21.808 17.979-15.815 17.979-15.815H950.15s.333 5.161-4.495 5.161-4.828-10.987-4.828-10.987h22.641c.001-.001 4.828-27.968-17.646-27.968zm4.162 19.144l-9.156.166s-.832-8.99 4.828-8.99 4.328 8.824 4.328 8.824zM978.322 387.411c0-6.078-1.961-17.254-17.842-17.254-15.881 0-17.548 17.058-17.548 17.058v15.097s.294 17.254 18.332 17.254 16.96-17.744 16.96-17.744h-13.038s.686 7.352-3.921 7.352-4.608-7.254-4.608-7.254l.098-14.313s-.392-7.156 4.313-7.156c4.706 0 3.823 6.96 3.823 6.96h13.431zM818.635 447.218s-20.476-2.331-20.476 30.964 19.977 32.463 19.977 32.463 19.977 1.165 19.977-19.977l-13.817-.167s.333 9.489-5.494 9.489-5.66-9.489-5.66-9.489l.333-22.974s.166-9.156 5.494-9.156c5.327 0 5.327 8.49 5.327 8.49h13.817c0 .001 2.164-19.643-19.478-19.643zM867.745 461.202c-18.479 0-17.646 14.65-17.646 14.65h12.818s-1.831-5.161 3.995-5.161 3.496 9.323 3.496 9.323c-10.821-.832-17.313 3.829-17.313 3.829-8.99 8.324-2.164 21.808-2.164 21.808s2.997 4.828 10.488 4.828 9.989-4.828 9.989-4.828l.832 3.995 12.319-.167-.333-33.295c0 .001 1.998-14.982-16.481-14.982zm-1.831 38.456s-3.662.333-4.162-5.327c-.499-5.66 8.823-5.327 8.823-5.327s1.998 11.153-4.661 10.654zM918.687 455.542v-10.155c-8.99-1.665-11.653-.999-16.148 2.664-4.495 3.662-3.496 13.984-3.496 13.984h-4.828v10.987h5.161v36.458h13.651v-36.625h5.827v-10.987h-5.66c-1-8.823 5.493-6.326 5.493-6.326z"/></g><g id="nomino"><path fill="#f4bf2b" d="M443.3 267.365V234l-47.664 47.665 48.068 48.067v-33.527h35.506V472.36h-16.965L340.096 350.211v42.413l109.99 109.991h58.53V266.799z"/><path fill="#1faee0" d="M450.086 419.203v-40.434L339.248 267.93h-57.682v234.685h65.033V534l47.482-47.482-46.937-46.936v32.495h-37.02V296.771h17.531z"/><g><path class="st18" d="M550.971 462.672V305.328h21.658l34.032 94.806h.441v-94.806h22.54v157.345h-21.215l-34.473-94.586h-.443v94.586h-22.54zM648.647 342.452c0-6.329 1.105-11.931 3.315-16.791 2.21-4.865 5.156-8.914 8.839-12.156 3.537-3.096 7.549-5.452 12.046-7.075 4.492-1.619 9.022-2.43 13.589-2.43 4.565 0 9.097.812 13.591 2.43a40.098 40.098 0 0112.266 7.075c3.535 3.242 6.409 7.291 8.618 12.156 2.21 4.86 3.315 10.462 3.315 16.791v83.096c0 6.629-1.105 12.301-3.315 17.016s-5.083 8.618-8.618 11.71c-3.685 3.242-7.774 5.672-12.266 7.291C695.532 463.188 691 464 686.435 464c-4.567 0-9.097-.812-13.589-2.435a35.413 35.413 0 01-12.046-7.291c-3.683-3.092-6.629-6.995-8.839-11.71s-3.315-10.387-3.315-17.016v-83.096zm22.54 83.096c0 5.452 1.508 9.467 4.53 12.043 3.019 2.576 6.592 3.866 10.718 3.866 4.124 0 7.696-1.29 10.718-3.866 3.019-2.576 4.532-6.592 4.532-12.043v-83.096c0-5.447-1.513-9.463-4.532-12.043-3.021-2.576-6.594-3.866-10.718-3.866-4.126 0-7.699 1.29-10.718 3.866-3.021 2.58-4.53 6.596-4.53 12.043v83.096zM744.112 462.672V305.328h21.656l28.951 83.312h.441l28.729-83.312h21.881v157.345h-22.543v-95.688h-.441l-22.322 67.624h-11.271l-22.097-67.624h-.443v95.688h-22.541zM867.648 462.672V305.328h22.543v157.345h-22.543zM911.18 462.672V305.328h21.661l34.032 94.806h.441v-94.806h22.538v157.345h-21.215l-34.473-94.586h-.441v94.586H911.18zM1008.858 342.452c0-6.329 1.103-11.931 3.312-16.791 2.21-4.865 5.156-8.914 8.839-12.156 3.537-3.096 7.549-5.452 12.048-7.075 4.49-1.619 9.022-2.43 13.587-2.43 4.565 0 9.097.812 13.591 2.43a40.096 40.096 0 0112.268 7.075c3.533 3.242 6.409 7.291 8.618 12.156 2.21 4.86 3.312 10.462 3.312 16.791v83.096c0 6.629-1.103 12.301-3.312 17.016s-5.086 8.618-8.618 11.71c-3.688 3.242-7.774 5.672-12.268 7.291-4.495 1.623-9.026 2.435-13.591 2.435-4.565 0-9.097-.812-13.587-2.435a35.402 35.402 0 01-12.048-7.291c-3.683-3.092-6.629-6.995-8.839-11.71s-3.312-10.387-3.312-17.016v-83.096zm22.538 83.096c0 5.452 1.511 9.467 4.532 12.043 3.017 2.576 6.592 3.866 10.715 3.866 4.124 0 7.699-1.29 10.72-3.866 3.017-2.576 4.532-6.592 4.532-12.043v-83.096c0-5.447-1.515-9.463-4.532-12.043-3.021-2.576-6.596-3.866-10.72-3.866-4.124 0-7.699 1.29-10.715 3.866-3.021 2.58-4.532 6.596-4.532 12.043v83.096z"/></g></g></svg>