<svg id="レイヤー_1" data-name="レイヤー 1" xmlns="http://www.w3.org/2000/svg" viewBox="0 0 1366 768"><defs><style>.cls-1{fill:#09345a;}.cls-2{fill:#202020;}</style></defs><path class="cls-1" d="M303.72,483.41,218.21,342l-3-61.67,85.49,142.91"/><path class="cls-1" d="M306.58,423.27V280.36h60.05V483.41h-57.1"/><path class="cls-1" d="M211.72,344.05V485.42H151.66V282.35h57.1"/><path class="cls-2" d="M750.31,487.47l-70.5-107.89V487.47H630.29V319.65h47.08l70.49,102.58V319.65h49.52V487.47Z"/><path class="cls-2" d="M558.22,333.15q23.65,22.62,23.66,65.85t-23.66,65.85q-23.67,22.62-67.09,22.62T424.19,465q-23.56-22.49-23.57-66t23.57-66q23.55-22.48,66.94-22.49T558.22,333.15ZM464.79,362.2a43.28,43.28,0,0,0-9,28.82v15.91a43.28,43.28,0,0,0,9,28.82,32.59,32.59,0,0,0,26.35,10.69,32.92,32.92,0,0,0,26.47-10.69,42.88,42.88,0,0,0,9.15-28.82V391a42.88,42.88,0,0,0-9.15-28.82,32.92,32.92,0,0,0-26.47-10.69,32.56,32.56,0,0,0-26.35,10.71Z"/><path class="cls-2" d="M976.45,323.83a44.89,44.89,0,0,1,21.22,39.39v3H947.18v-1a16.2,16.2,0,0,0-5.36-12.42,23.36,23.36,0,0,0-16.35-5A34,34,0,0,0,909,351a9.32,9.32,0,0,0-5.74,8,10.62,10.62,0,0,0,7.79,9.94,148.57,148.57,0,0,0,25.13,6.71,267.73,267.73,0,0,1,33.3,8.85,56.66,56.66,0,0,1,22.8,15,40.69,40.69,0,0,1,10,28.34q0,30.31-20.12,45a89.39,89.39,0,0,1-53.79,14.66q-39.27,0-61.11-13.41T845.45,426.6h51A19.37,19.37,0,0,0,903,443.87a37.89,37.89,0,0,0,20.46,4.34A54.28,54.28,0,0,0,940.43,446a8.9,8.9,0,0,0,6.71-9.21,10.07,10.07,0,0,0-7.44-9.32,146.43,146.43,0,0,0-24.26-6.58,273.87,273.87,0,0,1-33.91-9.32,57.11,57.11,0,0,1-23.42-16,43.77,43.77,0,0,1-10-30.31,45.27,45.27,0,0,1,21.34-41.38,100.59,100.59,0,0,1,54-13.26A96.39,96.39,0,0,1,976.45,323.83Z"/><path class="cls-2" d="M1149.26,362.58V487.47H1110V362.58h-59.6V319.65h163.92v42.93Z"/></svg>