<svg id="レイヤー_1" data-name="レイヤー 1" xmlns="http://www.w3.org/2000/svg" viewBox="0 0 22 22"><defs><style>.cls-1{fill:#f858f1;}</style></defs><path class="cls-1" d="M19.23,6.46a5.82,5.82,0,0,1,0,.59c0,6-4.42,13-12.5,13A12,12,0,0,1,0,18a7.37,7.37,0,0,0,1.06.06,8.61,8.61,0,0,0,5.46-1.95,4.42,4.42,0,0,1-4.11-3.17,5.57,5.57,0,0,0,.83.07,4.37,4.37,0,0,0,1.15-.16A4.52,4.52,0,0,1,.87,8.37V8.31a4.35,4.35,0,0,0,2,.58,4.6,4.6,0,0,1-2-3.8,4.7,4.7,0,0,1,.6-2.31,12.34,12.34,0,0,0,9.05,4.78,6,6,0,0,1-.1-1,4.48,4.48,0,0,1,4.39-4.57,4.32,4.32,0,0,1,3.21,1.45,8.45,8.45,0,0,0,2.79-1.11A4.5,4.5,0,0,1,18.91,4.8a8.72,8.72,0,0,0,2.53-.7A9.73,9.73,0,0,1,19.23,6.46Z"/></svg>