<svg id="レイヤー_1" data-name="レイヤー 1" xmlns="http://www.w3.org/2000/svg" viewBox="0 0 1366 768"><defs><style>.cls-1,.cls-6{fill:#fff;}.cls-1{stroke:#fff;stroke-linecap:round;stroke-linejoin:round;stroke-width:17px;}.cls-2{fill:#42757f;}.cls-3{fill:#61a1ad;}.cls-4{fill:#4e8691;}.cls-5{fill:#fddb90;isolation:isolate;opacity:0.5;}.cls-7{fill:#cceafb;}.cls-8{fill:#a5c7da;}.cls-9{fill:#4b4538;}.cls-10{fill:#e61d4e;}.cls-11{fill:#9ea842;}</style></defs><g id="umiToKokoroToBoku"><path class="cls-1" d="M666.29,522C757.87,522,832,502.11,832,477.34c0-16.89-34.81-31.53-86.28-39l17-81.46c5.67-26.65-7.57-52.92-30.28-65.69-8.7-4.88-12.86-15-11-24.77l8.7-42,.76-2.63a17.46,17.46,0,0,0,17.79-13.51v-.75a17.54,17.54,0,0,0-7.57-18L756,171.79c.38-.38.75-.75.75-1.13.76-4.13-22.7-9.38-33.3-11.64s-36.71-5.63-37.46-1.5a1.49,1.49,0,0,0,.75,1.5l8.33,21.4a17.11,17.11,0,0,0-12.49,13.14v.75a17.6,17.6,0,0,0,9.84,19.14l-9.46,44.67a22.82,22.82,0,0,1-20.06,18.39,61.68,61.68,0,0,0-54.12,48.43L584.92,438.3c-50.33,7.51-84.39,22.15-84.39,38.66C500.53,502.11,574.7,522,666.29,522Z"/><path class="cls-1" d="M425.6,521.63c-18.92-6.38-22,11.64-13.25,15,5.68,2.25,16.28,1.87,18.93,6,4.54,7.13-10.6,9.76-15.52,10.89-7.57,1.88-4.92,11.64,1.89,11.26s22.71-4.5,25.36-15.39c1.13-4.13,1.51-10.14-1.14-13.51C437.33,529.52,430.52,523.13,425.6,521.63Z"/><path class="cls-1" d="M437,510.37c-7.19-1.12-9.84,4.51-9.08,7.51,1.13,3.38,9.46,6.76,12.87,8.63,4.54,2.63,9.08.75,8.32-6C448.68,515.63,439.22,510.75,437,510.37Z"/><path class="cls-1" d="M511.13,559.54c-1.14,0-2.27,1.13-3.41,2.63-1.51-.75-2.65-1.5-4.16-2.25a59.35,59.35,0,0,0,7.19-12c4.16-11.26-15.9-15-24.6-15.39-7.19-1.5-10.6,9.38-3.79,13.14s14,2.25,11.36,7.88a8.34,8.34,0,0,0-1.14,1.88l-3.4-1.13a.37.37,0,0,1-.38-.37c-27.25-9-30.66,23.64-11.73,25.9,7.19.75,15.51-3.76,18.92-9.39,2.27,1.5,4.54,3,7.19,4.51a28.7,28.7,0,0,1-2.65,6c-2.27,3.75,0,9,4.54,6a27.36,27.36,0,0,0,7.57-7.13c2.65.75,4.92,1.12,6.06-.38,2.27-2.63,1.51-5.63-.38-8.63C521,563.3,517.18,558,511.13,559.54Zm-31,10.52c-3,.37-4.92-5.63,2.27-5.63C485.39,563.67,484.26,569.68,480.09,570.06Z"/><path class="cls-1" d="M555,589.58c4.93,0,10.6,0,9.84-5.64s-7.94-3.37-11.35-.37c0-4.88.38-15-4.54-16.52-4.54-1.5-10.22,4.13-7.57,9.76,3.41,7.13,4.54,9,4.54,9-1.89,1.13-8.32,4.51-7.19,10.14,1.14,6,9.84,6.38,17.41,7.5,3.41.75,9.08.38,8-4.5-1.52-6-9.84,1.13-15.14-3.76C545.94,593.33,549.73,589.58,555,589.58Z"/><path class="cls-1" d="M605.36,595.2c-8.71-.75-6.06-3.75-13.25-2.25-3.4.38-4.16,10.51,7.57,13.14,15.14,3.75,32.55,4.13,28.38-9.76C625,586.2,616,596.33,605.36,595.2Z"/><path class="cls-1" d="M598.92,557.67c-9.84,1.87-10.59,15.76-1.89,16.51,6.81.38,26.49-1.87,25,1.88-1.51,3.38-.38,6.38,5.3,4.88,5.67-1.12,4.92-6,3-9.76C625.79,561.05,610.66,558,598.92,557.67Z"/><path class="cls-1" d="M679.15,600.09c-8.7,0-6.43-3-13.62-.76-3.41.76-3,10.89,8.7,12.39,15.52,1.88,32.93.75,27.25-12.76C697.7,589.2,689.75,600.09,679.15,600.09Z"/><path class="cls-1" d="M668.56,563.67c-9.46,3-8.71,16.9,0,16.52,6.81-.37,26.11-4.88,25-.75-1.13,3.38.38,6.38,5.68,4.5s4.16-6.75,1.89-10.13C695.43,564.05,680.29,562.92,668.56,563.67Z"/><path class="cls-1" d="M756,580.94s7.19-5.63,10.59-10.88c4.92-7.89,0-12.39-5.67-14.27-7.57-1.87-22.33.38-27.63,3-5.68,2.63-4.16,15.39,5.3,15.39,6.43,0,13.24-7.5,16.27-5.63.38,2.63-9.46,10.52-13.24,13.52-5.68,4.13-2.27,10.88,1.51,10.88,3.78-.37,18.92-8.26,23.09-1.87,1.51,3-.76,4.88-5.68,8.25-6.06,3.76-10.22,4.51-9.46,7.89,1.13,6,9.46,5.25,17.4.75C789.28,595.2,777.55,570.81,756,580.94Z"/><path class="cls-1" d="M818,595.58c-3.41-1.13-1.51-6,3.41-7.88,4.54-1.88,9.84-4.13,6.81-9s-8.33,0-10.6,4.13c-1.89-4.51-5.67-13.89-11-13.14-4.92.75-7.57,7.88-3,12,6.05,5.26,7.57,6.38,7.57,6.38-1.52,1.88-5.68,7.13-2.27,12.39,3.4,4.88,11.73,1.5,18.92,0,3.41-.75,8.33-3.38,5.3-7.13C829,587.7,824.47,597.46,818,595.58Z"/><path class="cls-1" d="M852.1,554.67c-.76-7.14-6.43-12.39-11.73-9-6.06,3.75-1.89,11.63,0,16.89,2.27,5.25,8.32,17.27,13.24,24.4,2.65,4.13,10.22,1.87,7.57-4.13C859.67,579.82,852.48,561.8,852.1,554.67Z"/><path class="cls-1" d="M888.05,561.05c-.38-2.63-1.13-5.63-1.51-8.64,3.78-2.63,5.3-4.88,4.54-7.13s-3.41-2.25-6.43-1.88a27.75,27.75,0,0,0-1.9-6V537c.38,0,.38-.37.76-.37,3-1.88,2.65-5.26,0-6.76h2.27c4.54-.75,3-8.63-2.65-7.51a4.08,4.08,0,0,0-1.51,6.76,4.8,4.8,0,0,0-2.27-.38c1.51-2.25,0-5.25-3.41-4.5-3,1.88-2.65,3.75-1.13,4.88-7.95,1.5-14.76,4.51-17.79,7.51-3.78,4.13-4.16,13.13,6.43,10.88a20.93,20.93,0,0,0,4.92-1.87c.38,1.12.76,1.87,1.14,3-2.65,1.12-5.3,2.25-7.19,3-4.16,4.88-.38,9,9.46,6.38.76-.37,1.51-.37,2.27-.75a12,12,0,0,0,1.51,2.25c-.75,0-1.13.38-1.89.38-19.3,6-8.32,31.16,9.84,22.52,4.54-2.25,6.43-6.75,6.43-11.26,2.28,1.13,6.44,2.63,8.71-3C899.78,564.8,896,559.92,888.05,561.05ZM879,576.44c-2.65,1.5-7.57-3.38-1.51-6C880.48,568.55,881.62,574.56,879,576.44Z"/><path class="cls-1" d="M955.41,538.9c-5.29-3.75-19.68-2.25-25-3.38-4.92-1.12,24.6-20.64,9.08-32.28-11.73-8.63-16.65,6.76-19.3,12.39-5.3,13.13-7.57,21.39-.76,27.77,4.92,4.88,22.71,9.76,30.66,9.76A8.06,8.06,0,0,0,955.41,538.9Z"/><path class="cls-2" d="M738.44,185.55l-38.92-8-8,38.6,38.91,8Z"/><path class="cls-2" d="M730.28,224.32c1-4.88-6.86-10.55-17.52-12.66s-20.09.14-21.07,5,6.86,10.54,17.52,12.65S729.3,229.19,730.28,224.32Z"/><path class="cls-3" d="M666.29,522.38c91.54,0,165.75-20,165.75-44.67S757.83,433,666.29,433s-165.76,20-165.76,44.67S574.74,522.38,666.29,522.38Z"/><path class="cls-4" d="M665.91,495.73c66.67,0,120.72-11.09,120.72-24.77s-54-24.78-120.72-24.78S545.19,457.27,545.19,471,599.24,495.73,665.91,495.73Z"/><path class="cls-5" d="M721.54,266.38,731,221.71l-39-8.26-9.46,44.67a22.82,22.82,0,0,1-20.06,18.39,61.68,61.68,0,0,0-54.12,48.43l-34,162.16,6,1.12a451.7,451.7,0,0,0,154,3l28.38-134.39c5.67-26.65-7.57-52.92-30.28-65.69C723.81,286.27,719.65,276.14,721.54,266.38Z"/><path class="cls-6" d="M650,350.46,625.79,471.71h.38a131.53,131.53,0,0,0,72.28,0l21.2-107.36"/><path class="cls-7" d="M692.4,362.47c76.82,16.9-34.82-28.15-34.82-28.15l-2.27,15.77"/><path class="cls-8" d="M691.64,362.47l1.89-6.38c.38-.75-.37-1.5-1.13-1.87-16.27-1.51-67-9.39-28.76,1.12,7.19,1.88,13.24,3.38,18.16,4.88,3.79.75,7.19,1.88,10.6,2.25"/><path class="cls-5" d="M728.35,221.33l-32.55-6.75a16.64,16.64,0,0,1-13.24-20.27v-.75A16.77,16.77,0,0,1,703,180.42l32.54,6.76a16.64,16.64,0,0,1,13.25,20.27v.75C746.89,217.58,737.43,223.21,728.35,221.33Z"/><path class="cls-2" d="M736.8,194.4c.87-4.27-7.23-9.49-18.09-11.66s-20.36-.48-21.23,3.79,7.23,9.49,18.09,11.66S735.93,198.67,736.8,194.4Z"/><path class="cls-2" d="M736.68,195.43l-39-7.88L686,157.9,757.11,171Z"/><path class="cls-3" d="M757.11,171c-.75,4.12-25.73,4.5-36.33,2.25S685.21,162,686.34,157.9c.76-4.13,26.87-.75,37.47,1.5S757.87,166.91,757.11,171Z"/><path class="cls-3" d="M417.65,564.43c-6.81.75-9.46-9.39-1.89-11.27,4.54-1.12,19.68-3.75,15.52-10.88-2.65-4.13-13.25-3.76-18.93-6-8.7-3.38-5.67-21.39,13.25-15,5.3,1.87,11.73,8.26,16.27,13.89,2.65,3.37,2.27,9.38,1.14,13.51C440,559.92,424.46,563.67,417.65,564.43Zm10.22-46.55c-.76-3,1.89-8.63,9.08-7.51,2.27.38,11.73,5.26,12.11,10.14.76,6.75-3.78,8.63-8.32,6C437.33,524.64,429,521.26,427.87,517.88Z"/><path class="cls-3" d="M518.7,579.44c-1.14,1.5-3.41,1.5-6.06.38a27.36,27.36,0,0,1-7.57,7.13c-4.54,3-6.81-2.26-4.54-6a41.31,41.31,0,0,0,2.65-6c-2.27-1.51-4.92-3-7.19-4.51-3.41,5.63-11.73,10.51-18.92,9.39-18.93-2.26-15.52-34.91,11.73-25.9a.37.37,0,0,1,.38.37l3.4,1.13a8.34,8.34,0,0,1,1.14-1.88c2.65-5.63-4.54-4.13-11.36-7.88s-3.78-14.64,3.79-13.14c8.7.37,28.76,4.13,24.6,15.39a59.35,59.35,0,0,1-7.19,12,41.16,41.16,0,0,1,4.16,2.25c.76-1.5,1.89-2.63,3.41-2.63,5.67-1.5,9.84,3.76,6.81,10.89C520.21,573.43,521,576.44,518.7,579.44Zm-36.34-15c-7.19.37-5.29,6-2.27,5.63C484.26,569.68,485.39,563.67,482.36,564.43Z"/><path class="cls-9" d="M548.59,567.05c4.92,1.5,4.54,11.26,4.54,16.52,3.79-3,10.6-5.26,11.36.37s-4.92,5.64-9.84,5.64c-5.3,0-9.09,3.75-6.44,6,5.3,4.51,13.25-2.63,15.14,3.75,1.14,4.88-4.54,5.26-8,4.51-7.19-1.5-16.27-1.88-17.4-7.51-1.14-6,5.29-9.38,7.19-10.13,0,0-1.14-1.88-4.55-9C538.75,571.18,544.05,565.55,548.59,567.05Z"/><path class="cls-10" d="M628.06,596.33c4.17,14.27-13.62,13.52-28.38,9.76-11.73-2.63-11-12.76-7.57-13.14,7.19-1.5,4.92,1.5,13.25,2.25C616,596.33,625,586.2,628.06,596.33Zm-29.14-38.66c11.36.37,26.49,3,31.42,13.51,1.51,3.76,2.26,8.64-3,9.76s-6.44-1.87-5.3-4.88c1.51-3.75-18.17-1.5-25-1.88C588.33,573.81,589.08,559.54,598.92,557.67Z"/><path class="cls-10" d="M668.56,563.67c11.35-.75,26.87.38,32.54,10.14,1.9,3.38,3.41,8.26-1.89,10.13s-6.81-1.12-5.68-4.5c1.14-4.13-18.16.38-25,.75C659.85,580.57,659.1,566.68,668.56,563.67Zm33.3,34.91c5.68,13.52-11.73,15-27.25,12.77-11.73-1.5-12.11-11.64-8.7-12.39,6.81-2.25,4.92,1.13,13.62.75C689.75,600.09,697.7,589.2,701.86,598.58Z"/><path class="cls-10" d="M767.33,607.59c-7.57,4.51-16.27,5.26-17.41-.75-.38-3.38,3.41-4.13,9.46-7.88,4.92-3,7.19-4.88,5.68-8.26-4.16-6.38-19.3,1.5-23.09,1.88s-7.19-6.38-1.51-10.89c4.16-3,13.62-10.88,13.25-13.51-3-1.88-9.47,5.63-16.28,5.63-9.46,0-11-12.76-5.29-15.39,5.67-2.25,20.05-4.5,27.62-3,5.68,1.5,10.6,6,5.68,14.26-3.41,5.26-10.6,10.89-10.6,10.89C777.55,570.81,789.28,595.21,767.33,607.59Z"/><path class="cls-9" d="M806.69,569.3c5.3-.75,8.7,8.64,11,13.14,2.27-4.13,7.57-9,10.6-4.13s-2.27,7.14-6.81,9c-4.92,2.26-6.82,7.13-3.41,7.88,6.81,2.26,11-7.88,15.14-3,3,3.76-1.89,6.38-5.3,7.13-7.19,1.51-15.52,4.88-18.92,0s1.13-10.51,2.27-12.38c0,0-1.89-1.13-7.57-6.38C799.12,577.19,801.77,570.06,806.69,569.3Z"/><path class="cls-11" d="M852.1,554.67c.76,7.13,7.57,24.77,9.08,28.15,2.65,5.63-4.92,7.88-7.57,4.13-4.92-6.76-11-19.15-13.24-24.4-1.89-5.63-6.06-13.14,0-16.89C845.67,542.28,851.34,547.53,852.1,554.67Zm33.3-24.78h-2.27c2.27,1.88,2.65,4.88,0,6.76-.38,0-.38.37-.75.37v.38c.75,1.87,1.13,3.75,1.89,6,3.4-.75,5.67-.37,6.43,1.88s-.76,4.5-4.54,7.13a83,83,0,0,1,1.51,8.64c8-.75,11.74,3.75,10.22,7.88-1.89,5.25-6,4.13-8.7,3a12.72,12.72,0,0,1-6.44,11.26c-18.16,9-29.14-16.51-9.84-22.52.76,0,1.14-.37,1.9-.37a7.74,7.74,0,0,0-1.52-2.26c-.75.38-1.51.38-2.27.75-9.84,2.63-13.62-1.5-9.46-6.38,1.89-.75,4.54-1.87,7.19-3-.38-1.13-.75-1.88-1.13-3-1.9.75-3.79,1.5-4.92,1.87-10.6,1.88-10.22-6.75-6.44-10.88,3-3,9.84-6,17.79-7.51-1.14-1.13-1.51-3,1.14-4.88,3.78-.75,4.91,2.25,3.4,4.51a4.9,4.9,0,0,1,2.27.37c-1.89-1.88-1.13-6,1.52-6.76C888.81,521.26,889.94,529.14,885.4,529.89Zm-7.94,40.54c-6.06,2.63-1.14,7.51,1.51,6C881.62,574.56,880.48,568.55,877.46,570.43Z"/><path class="cls-11" d="M919.08,543.4c-6.43-6.38-4.54-14.64.76-27.77,2.65-5.63,7.57-21,19.3-12.39,15.14,11.26-14.38,31.16-9.08,32.28s19.68-.37,25,3.38,4.16,14.26-5.68,14.26C941.79,552.79,924,548.28,919.08,543.4Z"/></g></svg>